<?xml version="1.0" encoding="utf-8"?>
<!-- Generator: Adobe Illustrator 20.1.0, SVG Export Plug-In . SVG Version: 6.00 Build 0)  -->
<svg version="1.1" id="Layer_1" xmlns="http://www.w3.org/2000/svg" xmlns:xlink="http://www.w3.org/1999/xlink" x="0px" y="0px"
	 viewBox="0 0 143 90" style="enable-background:new 0 0 143 90;" xml:space="preserve">
<style type="text/css">
	.st0{fill:#306733;}
	.st1{fill:none;}
</style>
<g>
	<path class="st0" d="M6.4,66h1.5l3.9,10h-1.5l-1.1-3H5l-1.1,3H2.5L6.4,66z M5.4,71.9h3.4l-1.7-4.7h0L5.4,71.9z"/>
	<path class="st0" d="M12.7,68.8h1.1v1.5h0c0.6-1.2,1.4-1.7,2.7-1.7v1.3c-1.9,0-2.6,1.1-2.6,2.9V76h-1.2V68.8z"/>
	<path class="st0" d="M22,71.1c-0.2-0.9-0.8-1.4-1.8-1.4c-1.7,0-2.3,1.4-2.3,2.8c0,1.3,0.6,2.6,2.1,2.6c1.2,0,1.8-0.7,2-1.8h1.2
		c-0.3,1.8-1.4,2.8-3.2,2.8c-2.2,0-3.4-1.5-3.4-3.7c0-2.2,1.1-3.9,3.4-3.9c1.7,0,2.9,0.8,3.1,2.5H22z"/>
	<path class="st0" d="M24.5,66h1.2v3.8h0c0.4-0.9,1.4-1.2,2.3-1.2c1.9,0,2.5,1.1,2.5,2.6V76h-1.2v-4.9c0-0.9-0.6-1.5-1.5-1.5
		c-1.4,0-2.1,1-2.1,2.3V76h-1.2V66z"/>
	<path class="st0" d="M33.2,67.5H32V66h1.2V67.5z M32,68.8h1.2V76H32V68.8z"/>
	<path class="st0" d="M37.9,76h-1.3L34,68.8h1.3l2,6h0l2-6h1.2L37.9,76z"/>
	<path class="st0" d="M42.7,67.5h-1.2V66h1.2V67.5z M41.5,68.8h1.2V76h-1.2V68.8z"/>
	<path class="st0" d="M44.2,68.8h1.1v1.1h0c0.5-0.9,1.3-1.3,2.4-1.3c1.9,0,2.5,1.1,2.5,2.6V76H49v-4.9c0-0.9-0.6-1.5-1.5-1.5
		c-1.4,0-2.1,1-2.1,2.3V76h-1.2V68.8z"/>
	<path class="st0" d="M57.9,75.4c0,2.4-1.1,3.6-3.4,3.6c-1.4,0-2.9-0.6-3-2.1h1.2c0,0.9,1.1,1.2,1.9,1.2c1.6,0,2.2-1.1,2.2-2.7v-0.5
		h0c-0.4,0.9-1.3,1.3-2.3,1.3c-2.2,0-3.2-1.7-3.2-3.7c0-1.7,0.8-3.8,3.3-3.8c0.9,0,1.7,0.4,2.2,1.2h0v-1h1.1V75.4z M56.7,72.2
		c0-1.3-0.6-2.6-2.1-2.6c-1.5,0-2.1,1.2-2.1,2.6c0,1.3,0.5,2.8,2,2.8C56.1,75,56.7,73.6,56.7,72.2z"/>
	<path class="st0" d="M68.4,74.8c-0.6,0.9-1.7,1.4-2.8,1.4c-2.7,0-3.1-1.9-3.1-2.7c0-1.6,1.1-2.4,2.3-3c-0.6-0.8-1.1-1.3-1.1-2.4
		c0-1.1,0.8-2.1,2.3-2.1c1.2,0,2.4,0.7,2.4,2c0,1.2-0.9,2-1.9,2.6l1.8,2.2c0.2-0.5,0.3-1,0.3-1.6h1.1c-0.1,1.2-0.3,1.6-0.7,2.5
		L71,76h-1.6L68.4,74.8z M65.4,71.2c-0.9,0.5-1.7,1.1-1.7,2.3c0,1,0.9,1.7,1.9,1.7c0.9,0,1.6-0.5,2.1-1.2L65.4,71.2z M67.2,68.1
		c0-0.6-0.4-1.1-1.1-1.1c-0.6,0-1.1,0.3-1.1,1.1c0,0.6,0.5,1.2,1,1.7C66.4,69.5,67.2,69,67.2,68.1z"/>
	<path class="st0" d="M75.1,66h4.7c1.9,0,3,1,3,2.6c0,1.2-0.5,2.2-1.7,2.5v0c1.2,0.2,1.4,1.1,1.5,2.1c0.1,1,0,2.1,0.6,2.8h-1.5
		c-0.4-0.4-0.2-1.5-0.4-2.5c-0.2-1-0.4-1.8-1.7-1.8h-3.3V76h-1.3V66z M79.2,70.6c1.2,0,2.3-0.3,2.3-1.8c0-1-0.5-1.7-1.8-1.7h-3.3
		v3.5H79.2z"/>
	<path class="st0" d="M90.4,73.7c-0.3,1.6-1.5,2.5-3.1,2.5c-2.3,0-3.4-1.6-3.5-3.8c0-2.2,1.4-3.8,3.4-3.8c2.6,0,3.3,2.4,3.3,4.1
		h-5.4c0,1.3,0.7,2.4,2.3,2.4c1,0,1.7-0.5,1.9-1.4H90.4z M89.3,71.7c-0.1-1.1-0.9-2-2.1-2c-1.2,0-2,0.9-2.1,2H89.3z"/>
	<path class="st0" d="M93.3,68.8h1.4v1.1h-1.4v4.5c0,0.6,0.2,0.6,0.9,0.6h0.5V76h-0.9c-1.2,0-1.7-0.3-1.7-1.6v-4.6h-1.2v-1.1h1.2
		v-2.2h1.2V68.8z"/>
	<path class="st0" d="M97.1,67.5h-1.2V66h1.2V67.5z M95.9,68.8h1.2V76h-1.2V68.8z"/>
	<path class="st0" d="M98.7,68.8h1.1v1.5h0c0.6-1.2,1.4-1.7,2.7-1.7v1.3c-1.9,0-2.6,1.1-2.6,2.9V76h-1.2V68.8z"/>
	<path class="st0" d="M109.2,73.7c-0.3,1.6-1.5,2.5-3.1,2.5c-2.3,0-3.4-1.6-3.5-3.8c0-2.2,1.4-3.8,3.4-3.8c2.6,0,3.3,2.4,3.3,4.1
		h-5.4c0,1.3,0.7,2.4,2.3,2.4c1,0,1.7-0.5,1.9-1.4H109.2z M108.1,71.7c-0.1-1.1-0.9-2-2.1-2c-1.2,0-2,0.9-2.1,2H108.1z"/>
	<path class="st0" d="M110.5,68.8h1.1v1.1h0c0.5-0.8,1.3-1.2,2.3-1.2c0.9,0,1.7,0.3,2,1.2c0.5-0.8,1.3-1.2,2.3-1.2
		c1.4,0,2.4,0.6,2.4,2.1V76h-1.2v-4.7c0-0.9-0.2-1.6-1.4-1.6c-1.2,0-1.9,0.7-1.9,1.8V76H115v-4.7c0-0.9-0.3-1.6-1.4-1.6
		c-1.4,0-1.9,1.3-1.9,1.8V76h-1.2V68.8z"/>
	<path class="st0" d="M128.4,73.7c-0.3,1.6-1.5,2.5-3.1,2.5c-2.3,0-3.4-1.6-3.5-3.8c0-2.2,1.4-3.8,3.4-3.8c2.6,0,3.3,2.4,3.3,4.1
		h-5.4c0,1.3,0.7,2.4,2.3,2.4c1,0,1.7-0.5,1.9-1.4H128.4z M127.2,71.7c-0.1-1.1-0.9-2-2.1-2c-1.2,0-2,0.9-2.1,2H127.2z"/>
	<path class="st0" d="M129.7,68.8h1.1v1.1h0c0.5-0.9,1.3-1.3,2.4-1.3c1.9,0,2.5,1.1,2.5,2.6V76h-1.2v-4.9c0-0.9-0.6-1.5-1.5-1.5
		c-1.4,0-2.1,1-2.1,2.3V76h-1.2V68.8z"/>
	<path class="st0" d="M138.7,68.8h1.4v1.1h-1.4v4.5c0,0.6,0.2,0.6,0.9,0.6h0.5V76h-0.9c-1.2,0-1.7-0.3-1.7-1.6v-4.6h-1.2v-1.1h1.2
		v-2.2h1.2V68.8z"/>
</g>
<g>
	<path class="st0" d="M98.9,45.4L85.3,8.1L84.5,6l-2.1,0.8l-8.3,3l-2.1,0.8l0.8,2.1l13.6,37.3l0.8,2.1l2.1-0.8l8.3-3l2.1-0.8
		L98.9,45.4z M82.6,33.1L76,15l8.3-3l6.6,18.1L82.6,33.1z M91.1,43.5c-1.4,0.5-3-0.2-3.5-1.6c-0.5-1.4,0.2-3,1.6-3.5
		c0.3-0.1,0.6-0.2,0.9-0.2c1.1,0,2.2,0.7,2.6,1.8C93.3,41.4,92.6,43,91.1,43.5L91.1,43.5z M91.1,43.5"/>
	<path class="st0" d="M54.4,7.9h-11V52h13.2V7.9H54.4z M50,45.4c-1.5,0-2.8-1.2-2.8-2.8c0-1.5,1.2-2.8,2.8-2.8s2.8,1.2,2.8,2.8
		C52.8,44.1,51.5,45.4,50,45.4L50,45.4z M54.4,32.7h-8.8V13.4h8.8V32.7z M54.4,32.7"/>
	<path class="st0" d="M68.8,7.9h-11V52H71V7.9H68.8z M64.4,45.4c-1.5,0-2.8-1.2-2.8-2.8c0-1.5,1.2-2.8,2.8-2.8s2.8,1.2,2.8,2.8
		C67.1,44.1,65.9,45.4,64.4,45.4L64.4,45.4z M68.8,32.7h-8.8V13.4h8.8V32.7z M68.8,32.7"/>
</g>
</svg>
