<?xml version="1.0" encoding="utf-8"?>
<!-- Generator: Adobe Illustrator 19.0.0, SVG Export Plug-In . SVG Version: 6.00 Build 0)  -->
<svg version="1.1" id="Layer_1" xmlns="http://www.w3.org/2000/svg" xmlns:xlink="http://www.w3.org/1999/xlink" x="0px" y="0px"
	 viewBox="0 0 125 125" style="enable-background:new 0 0 125 125;" xml:space="preserve">
<style type="text/css">
	.st0{fill:#C8F08F;}
</style>
<rect id="XMLID_1_" x="-32.9" y="38.5" class="st0" width="23.2" height="18"/>
<path class="st0" d="M75.5,125h-26v-16.2c-3.7-1-7.2-2.5-10.5-4.4l-11.4,11.4L9.1,97.5l11.4-11.4c-1.9-3.3-3.3-6.9-4.4-10.5H0v-26
	h16.2c1-3.7,2.5-7.2,4.4-10.5L9.1,27.5L27.5,9.1l11.4,11.4c3.3-1.9,6.9-3.3,10.5-4.4V0h26v16.2c3.7,1,7.2,2.5,10.5,4.4L97.5,9.1
	l18.4,18.4l-11.4,11.4c1.9,3.3,3.3,6.9,4.4,10.5H125v26h-16.2c-1,3.7-2.5,7.2-4.4,10.5l11.4,11.4l-18.4,18.4l-11.4-11.4
	c-3.3,1.9-6.9,3.3-10.5,4.4V125z M54.7,119.8h15.6v-15l2-0.5c4.5-1.1,8.8-2.8,12.8-5.3l1.8-1.1l10.6,10.6l11-11L97.9,86.9l1.1-1.8
	c2.5-4,4.2-8.3,5.3-12.8l0.5-2h15V54.7h-15l-0.5-2c-1.1-4.5-2.8-8.8-5.3-12.8l-1.1-1.8l10.6-10.6l-11-11L86.9,27.1L85.1,26
	c-4-2.5-8.3-4.2-12.8-5.3l-2-0.5v-15H54.7v15l-2,0.5c-4.5,1.1-8.8,2.8-12.8,5.3l-1.8,1.1L27.5,16.5l-11,11l10.6,10.6L26,39.9
	c-2.5,4-4.2,8.3-5.3,12.8l-0.5,2h-15v15.6h15l0.5,2c1.1,4.5,2.8,8.8,5.3,12.8l1.1,1.8L16.5,97.5l11,11l10.6-10.6l1.8,1.1
	c4,2.5,8.3,4.2,12.8,5.3l2,0.5V119.8z"/>
<path class="st0" d="M62.5,80.7c-10.1,0-18.2-8.2-18.2-18.2s8.2-18.2,18.2-18.2c10.1,0,18.2,8.2,18.2,18.2S72.6,80.7,62.5,80.7z
	 M62.5,49.5c-7.2,0-13,5.8-13,13s5.8,13,13,13s13-5.8,13-13S69.7,49.5,62.5,49.5z"/>
</svg>
