<?xml version="1.0" encoding="utf-8"?>
<!-- Generator: Adobe Illustrator 20.1.0, SVG Export Plug-In . SVG Version: 6.00 Build 0)  -->
<svg version="1.1" id="Layer_1" xmlns="http://www.w3.org/2000/svg" xmlns:xlink="http://www.w3.org/1999/xlink" x="0px" y="0px"
	 viewBox="0 0 160 210" style="enable-background:new 0 0 160 210;" xml:space="preserve">
<style type="text/css">
	.st0{fill:#C8F08F;}
	.st1{fill:none;stroke:#000000;stroke-miterlimit:10;}
</style>
<g>
	<g>
		<polygon class="st0" points="40.7,139.2 1.3,71.1 40.7,3 119.3,3 158.7,71.1 119.3,139.2 		"/>
	</g>
	<g>
		<g>
			<path d="M35.2,85.9h-1.9l-3.8,10h1.8l0.9-2.6h4l0.9,2.6H39L35.2,85.9L35.2,85.9z M32.7,91.9l1.5-4.3h0l1.5,4.3H32.7L32.7,91.9z"
				/>
		</g>
		<g>
			<path d="M46.4,85.9h-1.6v3.7h0c-0.5-0.8-1.5-1.1-2.4-1.1c-1.6,0-3.1,1.1-3.1,3.8c0,2.2,1.1,3.9,3.4,3.9c0.9,0,1.8-0.3,2.2-1.2h0
				v1h1.5V85.9L46.4,85.9z M42.8,94.9c-1.4,0-2-1.2-2-2.5c0-1.3,0.5-2.6,2-2.6c1.2,0,2,0.9,2,2.5C44.9,93.6,44.3,94.9,42.8,94.9
				L42.8,94.9z"/>
		</g>
		<g>
			<polygon points="54.2,88.7 52.5,88.7 50.7,94.2 50.7,94.2 48.9,88.7 47.1,88.7 49.8,95.9 51.6,95.9 54.2,88.7 			"/>
		</g>
		<g>
			<path d="M56.5,85.9h-1.6v1.5h1.6V85.9L56.5,85.9z M56.5,88.7h-1.6v7.2h1.6V88.7L56.5,88.7z"/>
		</g>
		<g>
			<path d="M60.8,88.5c-1.3,0-3,0.5-3,2.1c0,1.5,1.1,1.9,2.3,2.1c1.2,0.3,2.3,0.4,2.4,1.2c0,0.8-1,1-1.6,1c-0.9,0-1.5-0.3-1.6-1.3
				h-1.6c0,1.7,1.4,2.5,3.2,2.5c1.5,0,3.2-0.6,3.2-2.4c0-1.4-1.2-1.8-2.3-2.1c-1.2-0.3-2.4-0.4-2.4-1.2c0-0.6,0.9-0.7,1.3-0.7
				c0.7,0,1.3,0.2,1.5,1h1.7C63.7,89.1,62.3,88.5,60.8,88.5L60.8,88.5z"/>
		</g>
		<g>
			<path d="M68.2,88.5c-2.2,0-3.5,1.8-3.5,3.8c0,2.2,1.3,3.8,3.5,3.8c1.6,0,2.9-0.9,3.3-2.5H70c-0.3,0.8-0.8,1.2-1.8,1.2
				c-1.3,0-1.9-1-1.9-2.1h5.3C71.9,90.5,70.5,88.5,68.2,88.5L68.2,88.5z M66.3,91.7c0-1.1,0.8-1.9,1.9-1.9c1.1,0,1.8,0.9,1.8,1.9
				H66.3L66.3,91.7z"/>
		</g>
		<g>
			<path d="M79.3,88.5c-2.3,0-3.7,1.6-3.7,3.8c0,2.2,1.3,3.8,3.7,3.8c2.3,0,3.7-1.6,3.7-3.8C83,90.1,81.6,88.5,79.3,88.5L79.3,88.5z
				 M79.3,94.9c-1.4,0-2.1-1.3-2.1-2.6c0-1.2,0.6-2.5,2.1-2.5s2.1,1.3,2.1,2.5C81.4,93.6,80.7,94.9,79.3,94.9L79.3,94.9z"/>
		</g>
		<g>
			<path d="M87.8,88.5c-1,0-1.8,0.5-2.3,1.3l0,0v-1.1H84v7.2h1.6v-4.3c0-1.1,0.7-1.9,1.8-1.9c1,0,1.4,0.5,1.4,1.6v4.6h1.6v-5
				C90.4,89.3,89.4,88.5,87.8,88.5L87.8,88.5z"/>
		</g>
		<g>
			<path d="M99.5,85.7c-3,0-4.8,2.4-4.8,5.2c0,2.9,1.8,5.2,4.8,5.2c2.4,0,4.1-1.7,4.3-4H102c-0.2,1.5-1,2.6-2.5,2.6
				c-2.1,0-3-1.9-3-3.8s0.9-3.8,3-3.8c1.5,0,2.2,0.8,2.5,2h1.8C103.5,86.9,101.7,85.7,99.5,85.7L99.5,85.7z"/>
		</g>
		<g>
			<polygon points="106.3,85.9 104.8,85.9 104.8,95.9 106.3,95.9 106.3,85.9 			"/>
		</g>
		<g>
			<path d="M111.1,88.5c-2.3,0-3.7,1.6-3.7,3.8c0,2.2,1.3,3.8,3.7,3.8c2.3,0,3.7-1.6,3.7-3.8C114.8,90.1,113.4,88.5,111.1,88.5
				L111.1,88.5z M111.1,94.9c-1.4,0-2.1-1.3-2.1-2.6c0-1.2,0.6-2.5,2.1-2.5s2.1,1.3,2.1,2.5C113.2,93.6,112.6,94.9,111.1,94.9
				L111.1,94.9z"/>
		</g>
		<g>
			<path d="M122.2,88.7h-1.6v4.2c0,1.1-0.4,2-1.8,2c-0.9,0-1.4-0.5-1.4-1.7v-4.4h-1.6v4.6c0,1.9,0.8,2.8,2.7,2.8
				c0.8,0,1.7-0.5,2.1-1.2h0v1h1.6V88.7L122.2,88.7z"/>
		</g>
		<g>
			<path d="M130.5,85.9h-1.6v3.7h0c-0.5-0.8-1.5-1.1-2.4-1.1c-1.6,0-3.1,1.1-3.1,3.8c0,2.2,1.1,3.9,3.4,3.9c0.9,0,1.8-0.3,2.2-1.2h0
				v1h1.5V85.9L130.5,85.9z M126.9,94.9c-1.4,0-2-1.2-2-2.5c0-1.3,0.5-2.6,2-2.6c1.2,0,2,0.9,2,2.5C129,93.6,128.4,94.9,126.9,94.9
				L126.9,94.9z"/>
		</g>
		<g>
			<path d="M57.4,102.7h-1.9l-3.8,10h1.8l0.9-2.6h4l0.9,2.6h1.9L57.4,102.7L57.4,102.7z M54.9,108.7l1.5-4.3h0l1.5,4.3H54.9
				L54.9,108.7z"/>
		</g>
		<g>
			<path d="M68.6,102.7H67v3.7h0c-0.5-0.8-1.5-1.1-2.4-1.1c-1.6,0-3.1,1.1-3.1,3.8c0,2.2,1.1,3.9,3.4,3.9c0.9,0,1.8-0.3,2.2-1.2h0v1
				h1.5V102.7L68.6,102.7z M65.1,111.7c-1.4,0-2-1.2-2-2.5c0-1.3,0.5-2.6,2-2.6c1.2,0,2,0.9,2,2.5C67.1,110.4,66.5,111.7,65.1,111.7
				L65.1,111.7z"/>
		</g>
		<g>
			<path d="M73.4,105.3c-2.3,0-3.7,1.6-3.7,3.8c0,2.2,1.3,3.8,3.7,3.8c2.3,0,3.7-1.6,3.7-3.8C77,106.9,75.7,105.3,73.4,105.3
				L73.4,105.3z M73.4,111.7c-1.4,0-2.1-1.3-2.1-2.6c0-1.2,0.6-2.5,2.1-2.5s2.1,1.3,2.1,2.5C75.4,110.4,74.8,111.7,73.4,111.7
				L73.4,111.7z"/>
		</g>
		<g>
			<path d="M81.9,105.3c-0.9,0-1.8,0.3-2.2,1.2h0v-1h-1.5v9.9h1.6v-3.6h0c0.5,0.8,1.5,1.1,2.4,1.1c2.1,0,3.1-1.8,3.1-3.8
				C85.3,107,84.2,105.3,81.9,105.3L81.9,105.3z M81.7,111.7c-1.3,0-2-1.1-2-2.5c0-1.6,0.7-2.6,2-2.6c1.3,0,2,1.3,2,2.6
				C83.7,110.4,83.1,111.7,81.7,111.7L81.7,111.7z"/>
		</g>
		<g>
			<path d="M88.3,103.3h-1.6v2.2h-1.2v1.2h1.2v4.3c0,1.2,0.3,1.8,2,1.8c0.3,0,0.7,0,1-0.1v-1.2c-0.2,0.1-0.4,0.1-0.7,0.1
				c-0.7,0-0.8-0.3-0.8-1v-3.9h1.4v-1.2h-1.4V103.3L88.3,103.3z"/>
		</g>
		<g>
			<path d="M92.4,102.7h-1.6v1.5h1.6V102.7L92.4,102.7z M92.4,105.5h-1.6v7.2h1.6V105.5L92.4,105.5z"/>
		</g>
		<g>
			<path d="M97.2,105.3c-2.3,0-3.7,1.6-3.7,3.8c0,2.2,1.3,3.8,3.7,3.8c2.3,0,3.7-1.6,3.7-3.8C100.9,106.9,99.5,105.3,97.2,105.3
				L97.2,105.3z M97.2,111.7c-1.4,0-2.1-1.3-2.1-2.6c0-1.2,0.6-2.5,2.1-2.5s2.1,1.3,2.1,2.5C99.3,110.4,98.6,111.7,97.2,111.7
				L97.2,111.7z"/>
		</g>
		<g>
			<path d="M105.7,105.3c-1,0-1.8,0.5-2.3,1.3l0,0v-1.1h-1.5v7.2h1.6v-4.3c0-1.1,0.7-1.9,1.8-1.9c1,0,1.4,0.5,1.4,1.6v4.6h1.6v-5
				C108.3,106.1,107.3,105.3,105.7,105.3L105.7,105.3z"/>
		</g>
	</g>
	<g>
		<g>
			<path class="st1" d="M70,61.3c-2.1,0-5.2-0.4-5.6-2.7c-0.2-1.1-0.1-2,0.5-2.6c0.6-0.7,1.5-1,2-1c0.2-2.5,1-4.3,2.5-5.4
				c1.8-1.3,4-1.2,5-1c0.2-1.8,1.5-6.9,8.3-7.2c2.7-0.1,4.9,0.5,6.5,2c2.5,2.3,2.9,5.6,3,6.7c1.2,0.5,5.3,2.7,4.3,7
				c-1.2,4.8-6.6,4.2-7.2,4.1L72,61.2C71.9,61.2,71.1,61.3,70,61.3z M73,49.4c-0.9,0-2.1,0.2-3.1,0.9c-1.3,1-2,2.7-2.1,5.1l0,0.5
				l-0.5,0c0,0-1.1,0-1.7,0.7c-0.3,0.4-0.4,1-0.3,1.8c0.4,2.2,4.9,2,6.6,1.8l17.4-0.1l0,0c0.2,0,5.1,0.8,6.1-3.3
				c1-4.1-3.7-5.9-3.9-6l-0.3-0.1l0-0.3c0,0-0.2-4-2.7-6.3c-1.4-1.3-3.4-1.9-5.8-1.8c-7.2,0.4-7.4,6.6-7.4,6.9l0,0.6l-0.6-0.2
				C74.6,49.6,73.9,49.4,73,49.4z"/>
		</g>
		<g>
			<g>
				<polygon class="st1" points="68.4,37.7 68.4,29.7 60.4,29.8 60.4,28.8 69.4,28.7 69.4,37.7 				"/>
			</g>
			<g>
				<polygon class="st1" points="68.4,37.7 68.4,29.7 60.4,29.8 60.4,28.8 69.4,28.7 69.4,37.7 				"/>
			</g>
		</g>
		<g>
			<path class="st1" d="M79.8,75.4c-13.9,0-25.2-10.9-25.2-24.3c0-4,1.1-8.1,3-11.6c1.3-2.4,3-4.5,5.1-6.3c1.7-1.5,3.7-2.8,5.8-3.9
				l0.4,0.9c-2,1-3.9,2.2-5.6,3.7c-2,1.7-3.6,3.8-4.9,6c-1.9,3.4-2.9,7.2-2.9,11.1c0,12.8,10.9,23.3,24.2,23.3s24.2-10.4,24.2-23.3
				c0-12.8-10.9-23.3-24.2-23.3v-1c13.9,0,25.2,10.9,25.2,24.3S93.8,75.4,79.8,75.4z"/>
		</g>
	</g>
</g>
</svg>
