<?xml version="1.0" encoding="utf-8"?>
<!-- Generator: Adobe Illustrator 20.1.0, SVG Export Plug-In . SVG Version: 6.00 Build 0)  -->
<svg version="1.1" id="Layer_1" xmlns="http://www.w3.org/2000/svg" xmlns:xlink="http://www.w3.org/1999/xlink" x="0px" y="0px"
	 viewBox="0 0 160 210" style="enable-background:new 0 0 160 210;" xml:space="preserve">
<style type="text/css">
	.st0{fill:#C8F08F;}
	.st1{fill:none;stroke:#000000;stroke-miterlimit:10;}
</style>
<g>
	<g>
		<polygon class="st0" points="40.7,207 1.3,138.9 40.7,70.8 119.3,70.8 158.7,138.9 119.3,207 		"/>
	</g>
	<g>
		<g>
			<path d="M43.5,167.4h-4.8v10h1.8v-4.1h2.6c1.6,0,2,0.8,2,2.6c0,0.5,0,1,0.3,1.5h1.9c-0.4-0.4-0.5-1.5-0.5-2.6
				c0-1.6-0.9-2-1.5-2.1v0c0.3-0.1,1.7-0.6,1.7-2.5C46.8,168.4,45.7,167.4,43.5,167.4L43.5,167.4z M40.5,171.9v-3.1h2.8
				c0.9,0,1.7,0.2,1.7,1.5c0,1.1-0.6,1.6-1.7,1.6H40.5L40.5,171.9z"/>
		</g>
		<g>
			<path d="M54.4,170.1h-1.6v4.2c0,1.1-0.4,2-1.8,2c-0.9,0-1.4-0.5-1.4-1.7v-4.4h-1.6v4.6c0,1.9,0.8,2.8,2.7,2.8
				c0.8,0,1.7-0.5,2.1-1.2h0v1h1.6V170.1L54.4,170.1z"/>
		</g>
		<g>
			<path d="M59.6,169.9c-1,0-1.8,0.5-2.3,1.3l0,0v-1.1h-1.5v7.2h1.6v-4.3c0-1.1,0.7-1.9,1.8-1.9c1,0,1.4,0.5,1.4,1.6v4.6h1.6v-5
				C62.1,170.8,61.1,169.9,59.6,169.9L59.6,169.9z"/>
		</g>
		<g>
			<path d="M70,169.9c-2.3,0-3.7,1.6-3.7,3.8c0,2.2,1.3,3.8,3.7,3.8c2.3,0,3.7-1.6,3.7-3.8C73.7,171.6,72.3,169.9,70,169.9L70,169.9
				z M70,176.3c-1.4,0-2.1-1.3-2.1-2.6c0-1.2,0.6-2.5,2.1-2.5s2.1,1.3,2.1,2.5C72.1,175,71.5,176.3,70,176.3L70,176.3z"/>
		</g>
		<g>
			<path d="M78.6,169.9c-1,0-1.8,0.5-2.3,1.3l0,0v-1.1h-1.5v7.2h1.6v-4.3c0-1.1,0.7-1.9,1.8-1.9c1,0,1.4,0.5,1.4,1.6v4.6h1.6v-5
				C81.1,170.8,80.1,169.9,78.6,169.9L78.6,169.9z"/>
		</g>
		<g>
			<path d="M90.2,167.1c-3,0-4.8,2.4-4.8,5.2c0,2.9,1.8,5.2,4.8,5.2c2.4,0,4.1-1.7,4.3-4h-1.7c-0.2,1.5-1,2.6-2.5,2.6
				c-2.1,0-3-1.9-3-3.8s0.9-3.8,3-3.8c1.5,0,2.2,0.8,2.5,2h1.8C94.2,168.4,92.5,167.1,90.2,167.1L90.2,167.1z"/>
		</g>
		<g>
			<polygon points="97.1,167.4 95.5,167.4 95.5,177.4 97.1,177.4 97.1,167.4 			"/>
		</g>
		<g>
			<path d="M101.9,169.9c-2.3,0-3.7,1.6-3.7,3.8c0,2.2,1.3,3.8,3.7,3.8c2.3,0,3.7-1.6,3.7-3.8C105.5,171.6,104.2,169.9,101.9,169.9
				L101.9,169.9z M101.9,176.3c-1.4,0-2.1-1.3-2.1-2.6c0-1.2,0.6-2.5,2.1-2.5s2.1,1.3,2.1,2.5C103.9,175,103.3,176.3,101.9,176.3
				L101.9,176.3z"/>
		</g>
		<g>
			<path d="M112.9,170.1h-1.6v4.2c0,1.1-0.4,2-1.8,2c-0.9,0-1.4-0.5-1.4-1.7v-4.4h-1.6v4.6c0,1.9,0.8,2.8,2.7,2.8
				c0.8,0,1.7-0.5,2.1-1.2h0v1h1.6V170.1L112.9,170.1z"/>
		</g>
		<g>
			<path d="M121.2,167.4h-1.6v3.7h0c-0.5-0.8-1.5-1.1-2.4-1.1c-1.6,0-3.1,1.1-3.1,3.8c0,2.2,1.1,3.9,3.4,3.9c0.9,0,1.8-0.3,2.2-1.2
				h0v1h1.5V167.4L121.2,167.4z M117.7,176.3c-1.4,0-2-1.2-2-2.5c0-1.3,0.5-2.6,2-2.6c1.2,0,2,0.9,2,2.5
				C119.7,175,119.1,176.3,117.7,176.3L117.7,176.3z"/>
		</g>
	</g>
	<g>
		<g>
			<path class="st1" d="M78.4,154.6c-15.6,0-28.4-12.2-28.4-27.2s12.7-27.2,28.4-27.2s28.4,12.2,28.4,27.2S94.1,154.6,78.4,154.6z
				 M78.4,101.2c-15.1,0-27.4,11.8-27.4,26.2s12.3,26.2,27.4,26.2s27.4-11.8,27.4-26.2S93.5,101.2,78.4,101.2z"/>
		</g>
		<g>
			<path class="st1" d="M92.6,137.4c-1.4,0-2.6-0.1-2.7-0.2l0.1-1c2.2,0.3,8.1,0.5,8.6-2.4c0.2-1,0.1-1.8-0.4-2.4
				c-0.8-0.9-2.3-1-2.3-1h-0.5l0-0.5c-0.1-3.1-1-5.4-2.7-6.6c-2.6-1.9-6.1-1-6.2-1l-0.6,0.2l0-0.6c0-0.3-0.2-8.4-9.6-8.9
				c-3.1-0.2-5.6,0.6-7.5,2.3c-3.4,3.1-3.5,8.1-3.5,8.2l0,0.3L65,124c-0.3,0.1-6.5,2.4-5.1,7.8c1.3,5.4,7.7,4.4,7.9,4.4l0.2,1
				c-0.1,0-7.5,1.1-9.1-5.1c-1.4-5.5,4.1-8.3,5.4-8.9c0.1-1.2,0.7-5.7,3.9-8.6c2.1-1.9,4.8-2.8,8.2-2.6c8.8,0.5,10.3,7.2,10.5,9.3
				c1.2-0.2,4.1-0.5,6.5,1.2c1.9,1.4,2.9,3.7,3.1,7c0.7,0.1,1.8,0.4,2.6,1.3c0.7,0.8,0.9,1.9,0.6,3.2
				C99.1,136.9,95.3,137.4,92.6,137.4z"/>
		</g>
		<g>
			<rect x="71.8" y="132.5" class="st1" width="15.2" height="2.1"/>
		</g>
		<g>
			<rect x="71.8" y="135.7" class="st1" width="15.2" height="2.1"/>
		</g>
		<g>
			<rect x="71.8" y="138.7" class="st1" width="15.2" height="2.1"/>
		</g>
		<g>
			<rect x="71.8" y="142.8" class="st1" width="15.2" height="2.1"/>
		</g>
	</g>
</g>
</svg>
