<?xml version="1.0" encoding="utf-8"?>
<!-- Generator: Adobe Illustrator 20.1.0, SVG Export Plug-In . SVG Version: 6.00 Build 0)  -->
<svg version="1.1" id="Layer_1" xmlns="http://www.w3.org/2000/svg" xmlns:xlink="http://www.w3.org/1999/xlink" x="0px" y="0px"
	 viewBox="0 0 160 210" style="enable-background:new 0 0 160 210;" xml:space="preserve">
<style type="text/css">
	.st0{fill:#C8F08F;}
	.st1{fill:none;stroke:#000000;stroke-miterlimit:10;}
</style>
<g>
	<g>
		<polygon class="st0" points="40.7,139.2 1.3,71.1 40.7,3 119.3,3 158.7,71.1 119.3,139.2 		"/>
	</g>
	<g>
		<g>
			<g>
				<path class="st1" d="M88.8,69.8H57.1c-0.1,0-11.2-0.5-11-12.2c0.1-3.7,1.1-6.6,3.3-8.7c2.6-2.5,5.8-2.9,7-3
					c0.7-3.8,2.2-6.4,4.6-7.6c3.3-1.7,7.3-0.3,8.7,0.4c0.6-2.6,3.5-11.8,15-10.8c13.2,1.2,12.9,15.2,12.9,15.3l-1,0
					c0-0.5,0.3-13.1-12-14.3c-12.2-1.1-13.9,10.1-14,10.6l-0.1,0.7l-0.6-0.3c0,0-4.8-2.5-8.4-0.6c-2.2,1.1-3.6,3.6-4.2,7.3L57.2,47
					l-0.4,0c-0.4,0-9.5,0-9.7,10.7c-0.2,10.7,9.6,11.1,10,11.2h31.7V69.8z"/>
			</g>
			<g>
				<g>
					<polygon class="st1" points="88.1,64.5 88.1,74.2 93,69.3 					"/>
				</g>
			</g>
		</g>
		<g>
			<path class="st1" d="M113.9,61H60.3V46h53.7V61z M61.3,60h51.7V47H61.3V60z"/>
		</g>
		<g>
			<rect x="69.5" y="51.7" class="st1" width="3.5" height="3.5"/>
		</g>
		<g>
			<rect x="81.2" y="51.7" class="st1" width="3.5" height="3.5"/>
		</g>
		<g>
			<rect x="92.8" y="51.7" class="st1" width="3.5" height="3.5"/>
		</g>
		<g>
			<rect x="104.9" y="51.7" class="st1" width="3.5" height="3.5"/>
		</g>
		<g>
			<rect x="72.5" y="46.5" class="st1" width="1" height="14"/>
		</g>
		<g>
			<rect x="84.1" y="46.5" class="st1" width="1" height="14"/>
		</g>
		<g>
			<rect x="95.8" y="46.5" class="st1" width="1" height="14"/>
		</g>
		<g>
			<rect x="107.8" y="46.5" class="st1" width="1" height="14"/>
		</g>
	</g>
	<g>
		<g>
			<polygon points="58,87.3 55.6,87.3 52.9,95.1 52.9,95.1 50.1,87.3 47.6,87.3 47.6,97.3 49.3,97.3 49.3,89.6 49.3,89.6 52.1,97.3 
				53.5,97.3 56.3,89.6 56.3,89.6 56.3,97.3 58,97.3 58,87.3 			"/>
		</g>
		<g>
			<path d="M62.9,89.9c-2.3,0-3.7,1.6-3.7,3.8c0,2.2,1.3,3.8,3.7,3.8c2.3,0,3.7-1.6,3.7-3.8C66.6,91.5,65.2,89.9,62.9,89.9
				L62.9,89.9z M62.9,96.2c-1.4,0-2.1-1.3-2.1-2.6c0-1.2,0.6-2.5,2.1-2.5s2.1,1.3,2.1,2.5C65,94.9,64.3,96.2,62.9,96.2L62.9,96.2z"
				/>
		</g>
		<g>
			<path d="M74.7,87.3h-1.6V91h0c-0.5-0.8-1.5-1.1-2.4-1.1c-1.6,0-3.1,1.1-3.1,3.8c0,2.2,1.1,3.9,3.4,3.9c0.9,0,1.8-0.3,2.2-1.2h0v1
				h1.5V87.3L74.7,87.3z M71.1,96.2c-1.4,0-2-1.2-2-2.5c0-1.3,0.5-2.6,2-2.6c1.2,0,2,0.9,2,2.5C73.2,94.9,72.5,96.2,71.1,96.2
				L71.1,96.2z"/>
		</g>
		<g>
			<path d="M79.2,89.9c-2.2,0-3.5,1.8-3.5,3.8c0,2.2,1.3,3.8,3.5,3.8c1.6,0,2.9-0.9,3.3-2.5h-1.5c-0.3,0.8-0.8,1.2-1.8,1.2
				c-1.3,0-1.9-1-1.9-2.1h5.3C82.9,91.9,81.5,89.9,79.2,89.9L79.2,89.9z M77.3,93c0-1.1,0.8-1.9,1.9-1.9c1.1,0,1.8,0.9,1.8,1.9H77.3
				L77.3,93z"/>
		</g>
		<g>
			<path d="M87.4,89.9c-1,0-1.9,0.8-2.1,1.6h0V90h-1.5v7.2h1.6v-3.4c0-1.6,0.9-2.5,2-2.5c0.2,0,0.5,0,0.7,0.1v-1.5
				C87.9,89.9,87.8,89.9,87.4,89.9L87.4,89.9z"/>
		</g>
		<g>
			<path d="M92.8,89.9c-1,0-1.8,0.5-2.3,1.3l0,0V90H89v7.2h1.6V93c0-1.1,0.7-1.9,1.8-1.9c1,0,1.4,0.5,1.4,1.6v4.6h1.6v-5
				C95.3,90.7,94.3,89.9,92.8,89.9L92.8,89.9z"/>
		</g>
		<g>
			<path d="M98.3,87.3h-1.6v1.5h1.6V87.3L98.3,87.3z M98.3,90h-1.6v7.2h1.6V90L98.3,90z"/>
		</g>
		<g>
			<polygon points="105.4,90 99.5,90 99.5,91.3 103.2,91.3 99.2,96.2 99.2,97.3 105.6,97.3 105.6,96 101.3,96 105.4,91.2 105.4,90 
							"/>
		</g>
		<g>
			<path d="M109.4,89.9c-2.2,0-3.5,1.8-3.5,3.8c0,2.2,1.3,3.8,3.5,3.8c1.6,0,2.9-0.9,3.3-2.5h-1.5c-0.3,0.8-0.8,1.2-1.8,1.2
				c-1.3,0-1.9-1-1.9-2.1h5.3C113.1,91.9,111.7,89.9,109.4,89.9L109.4,89.9z M107.5,93c0-1.1,0.8-1.9,1.9-1.9c1.1,0,1.8,0.9,1.8,1.9
				H107.5L107.5,93z"/>
		</g>
		<g>
			<path d="M54.7,104.1c-1,0-2,0.3-2,2.2v0.6h-1.2v1.2h1.2v6.1h1.6V108h1.4v-1.2h-1.4v-0.7c0-0.6,0.4-0.8,0.8-0.8
				c0.3,0,0.5,0,0.7,0.1v-1.2C55.6,104.1,55.2,104.1,54.7,104.1L54.7,104.1z"/>
		</g>
		<g>
			<path d="M59.4,106.7c-2.3,0-3.7,1.6-3.7,3.8c0,2.2,1.3,3.8,3.7,3.8c2.3,0,3.7-1.6,3.7-3.8C63.1,108.3,61.7,106.7,59.4,106.7
				L59.4,106.7z M59.4,113c-1.4,0-2.1-1.3-2.1-2.6c0-1.2,0.6-2.5,2.1-2.5s2.1,1.3,2.1,2.5C61.5,111.7,60.8,113,59.4,113L59.4,113z"
				/>
		</g>
		<g>
			<path d="M67.8,106.7c-1,0-1.9,0.8-2.1,1.6h0v-1.4h-1.5v7.2h1.6v-3.4c0-1.6,0.9-2.5,2-2.5c0.2,0,0.5,0,0.7,0.1v-1.5
				C68.2,106.7,68.2,106.7,67.8,106.7L67.8,106.7z"/>
		</g>
		<g>
			<path d="M76.7,103.9c-3,0-4.8,2.4-4.8,5.2c0,2.9,1.8,5.2,4.8,5.2c2.4,0,4.1-1.7,4.3-4h-1.7c-0.2,1.5-1,2.6-2.5,2.6
				c-2.1,0-3-1.9-3-3.8s0.9-3.8,3-3.8c1.5,0,2.2,0.8,2.5,2H81C80.7,105.1,79,103.9,76.7,103.9L76.7,103.9z"/>
		</g>
		<g>
			<polygon points="83.6,104.1 82,104.1 82,114.1 83.6,114.1 83.6,104.1 			"/>
		</g>
		<g>
			<path d="M88.4,106.7c-2.3,0-3.7,1.6-3.7,3.8c0,2.2,1.3,3.8,3.7,3.8c2.3,0,3.7-1.6,3.7-3.8C92,108.3,90.7,106.7,88.4,106.7
				L88.4,106.7z M88.4,113c-1.4,0-2.1-1.3-2.1-2.6c0-1.2,0.6-2.5,2.1-2.5s2.1,1.3,2.1,2.5C90.4,111.7,89.8,113,88.4,113L88.4,113z"
				/>
		</g>
		<g>
			<path d="M99.5,106.8h-1.6v4.2c0,1.1-0.4,2-1.8,2c-0.9,0-1.4-0.5-1.4-1.7v-4.4h-1.6v4.6c0,1.9,0.8,2.8,2.7,2.8
				c0.8,0,1.7-0.5,2.1-1.2h0v1h1.6V106.8L99.5,106.8z"/>
		</g>
		<g>
			<path d="M107.8,104.1h-1.6v3.7h0c-0.5-0.8-1.5-1.1-2.4-1.1c-1.6,0-3.1,1.1-3.1,3.8c0,2.2,1.1,3.9,3.4,3.9c0.9,0,1.8-0.3,2.2-1.2
				h0v1h1.5V104.1L107.8,104.1z M104.2,113c-1.4,0-2-1.2-2-2.5c0-1.3,0.5-2.6,2-2.6c1.2,0,2,0.9,2,2.5
				C106.2,111.7,105.6,113,104.2,113L104.2,113z"/>
		</g>
	</g>
</g>
</svg>
