<?xml version="1.0" encoding="utf-8"?>
<!-- Generator: Adobe Illustrator 20.1.0, SVG Export Plug-In . SVG Version: 6.00 Build 0)  -->
<svg version="1.1" id="Layer_1" xmlns="http://www.w3.org/2000/svg" xmlns:xlink="http://www.w3.org/1999/xlink" x="0px" y="0px"
	 viewBox="0 0 160 210" style="enable-background:new 0 0 160 210;" xml:space="preserve">
<style type="text/css">
	.st0{fill:#C8F08F;}
	.st1{fill:none;stroke:#000000;stroke-miterlimit:10;}
</style>
<g>
	<g>
		<polygon class="st0" points="40.7,139.2 1.3,71.1 40.7,3 119.3,3 158.7,71.1 119.3,139.2 		"/>
	</g>
	<g>
		<g>
			<path d="M40.2,104.6h-4.9v10H40c2.6,0,3.7-1.2,3.7-2.8c0-1.4-0.6-2.3-1.9-2.6v0c0.9-0.4,1.4-1.1,1.4-2.1
				C43.2,105.4,42,104.6,40.2,104.6L40.2,104.6z M37.1,108.8V106H40c1,0,1.5,0.4,1.5,1.4c0,0.9-0.6,1.4-1.5,1.4H37.1L37.1,108.8z
				 M37.1,113.2V110h3.1c1.1,0,1.7,0.5,1.7,1.5c0,1-0.6,1.6-1.7,1.6H37.1L37.1,113.2z"/>
		</g>
		<g>
			<path d="M51.1,107.3h-1.6v4.2c0,1.1-0.4,2-1.8,2c-0.9,0-1.4-0.5-1.4-1.7v-4.4h-1.6v4.6c0,1.9,0.8,2.8,2.7,2.8
				c0.8,0,1.7-0.5,2.1-1.2h0v1h1.6V107.3L51.1,107.3z"/>
		</g>
		<g>
			<path d="M54.1,104.6h-1.6v1.5h1.6V104.6L54.1,104.6z M54.1,107.3h-1.6v7.2h1.6V107.3L54.1,107.3z"/>
		</g>
		<g>
			<polygon points="57.1,104.6 55.5,104.6 55.5,114.6 57.1,114.6 57.1,104.6 			"/>
		</g>
		<g>
			<path d="M65.5,104.6h-1.6v3.7h0c-0.5-0.8-1.5-1.1-2.4-1.1c-1.6,0-3.1,1.1-3.1,3.8c0,2.2,1.1,3.9,3.4,3.9c0.9,0,1.8-0.3,2.2-1.2h0
				v1h1.5V104.6L65.5,104.6z M61.9,113.5c-1.4,0-2-1.2-2-2.5c0-1.3,0.5-2.6,2-2.6c1.2,0,2,0.9,2,2.5C64,112.2,63.3,113.5,61.9,113.5
				L61.9,113.5z"/>
		</g>
		<g>
			<path d="M73.4,107.1c-2.3,0-3.7,1.6-3.7,3.8c0,2.2,1.3,3.8,3.7,3.8c2.3,0,3.7-1.6,3.7-3.8C77.1,108.8,75.7,107.1,73.4,107.1
				L73.4,107.1z M73.4,113.5c-1.4,0-2.1-1.3-2.1-2.6c0-1.2,0.6-2.5,2.1-2.5s2.1,1.3,2.1,2.5C75.5,112.2,74.8,113.5,73.4,113.5
				L73.4,113.5z"/>
		</g>
		<g>
			<path d="M81.9,107.1c-1,0-1.8,0.5-2.3,1.3l0,0v-1.1h-1.5v7.2h1.6v-4.3c0-1.1,0.7-1.9,1.8-1.9c1,0,1.4,0.5,1.4,1.6v4.6h1.6v-5
				C84.5,108,83.5,107.1,81.9,107.1L81.9,107.1z"/>
		</g>
		<g>
			<path d="M93.6,104.3c-3,0-4.8,2.4-4.8,5.2c0,2.9,1.8,5.2,4.8,5.2c2.4,0,4.1-1.7,4.3-4h-1.7c-0.2,1.5-1,2.6-2.5,2.6
				c-2.1,0-3-1.9-3-3.8s0.9-3.8,3-3.8c1.5,0,2.2,0.8,2.5,2h1.8C97.6,105.6,95.9,104.3,93.6,104.3L93.6,104.3z"/>
		</g>
		<g>
			<polygon points="100.5,104.6 98.9,104.6 98.9,114.6 100.5,114.6 100.5,104.6 			"/>
		</g>
		<g>
			<path d="M105.2,107.1c-2.3,0-3.7,1.6-3.7,3.8c0,2.2,1.3,3.8,3.7,3.8s3.7-1.6,3.7-3.8C108.9,108.8,107.6,107.1,105.2,107.1
				L105.2,107.1z M105.2,113.5c-1.4,0-2.1-1.3-2.1-2.6c0-1.2,0.6-2.5,2.1-2.5c1.4,0,2.1,1.3,2.1,2.5
				C107.3,112.2,106.7,113.5,105.2,113.5L105.2,113.5z"/>
		</g>
		<g>
			<path d="M116.3,107.3h-1.6v4.2c0,1.1-0.4,2-1.8,2c-0.9,0-1.4-0.5-1.4-1.7v-4.4H110v4.6c0,1.9,0.8,2.8,2.7,2.8
				c0.8,0,1.7-0.5,2.1-1.2h0v1h1.6V107.3L116.3,107.3z"/>
		</g>
		<g>
			<path d="M124.6,104.6H123v3.7h0c-0.5-0.8-1.5-1.1-2.4-1.1c-1.6,0-3.1,1.1-3.1,3.8c0,2.2,1.1,3.9,3.4,3.9c0.9,0,1.8-0.3,2.2-1.2h0
				v1h1.5V104.6L124.6,104.6z M121.1,113.5c-1.4,0-2-1.2-2-2.5c0-1.3,0.5-2.6,2-2.6c1.2,0,2,0.9,2,2.5
				C123.1,112.2,122.5,113.5,121.1,113.5L121.1,113.5z"/>
		</g>
	</g>
	<g>
		<g>
			<path class="st1" d="M94.7,51l-16-5.6c0,0-5.1-0.8-6.2-6c0,0-1-4,2.7-4.6c0,0-0.4-8.4,6-7.4c6.4,1,8.8,6.9,8.8,6.9
				s3.9-0.3,5.7,2.4c1.8,2.8,0.9,5,0.9,5s3,2.3,2.6,6.4C98.8,52.3,94.7,51,94.7,51z"/>
		</g>
		<g>
			<polygon class="st1" points="66.8,67.1 59.3,61.4 54.8,63.3 54.4,62.3 59.4,60.2 66.9,66 79.3,59.7 79.3,44.3 80.3,44.3 
				80.3,60.4 			"/>
		</g>
		<g>
			<polygon class="st1" points="63.6,73 63.1,72.1 82.6,62.2 82.6,45.3 83.6,45.3 83.6,62.9 			"/>
		</g>
		<g>
			<polygon class="st1" points="82.8,77 74.7,71 87.4,64.5 87.4,47.7 88.4,47.7 88.4,65.1 76.6,71.2 83.4,76.1 			"/>
		</g>
		<g>
			<polygon class="st1" points="55.7,80.9 45.9,74.1 55.3,70.3 66.1,77.1 			"/>
		</g>
		<g>
			<polygon class="st1" points="88.9,75.6 91.1,65.3 104.6,71.1 102.1,82.3 			"/>
		</g>
		<g>
			<polygon class="st1" points="101.3,83.3 88,76.6 78.9,81.8 94.3,90.3 			"/>
		</g>
		<g>
			<polygon class="st1" points="101.6,83.3 101.6,84.4 94.8,91.7 94.6,90.3 			"/>
		</g>
		<g>
			<polygon class="st1" points="94.4,91.7 78.9,83.1 78.9,82.1 94.3,90.6 			"/>
		</g>
	</g>
</g>
</svg>
