<?xml version="1.0" encoding="utf-8"?>
<!-- Generator: Adobe Illustrator 20.1.0, SVG Export Plug-In . SVG Version: 6.00 Build 0)  -->
<svg version="1.1" id="Layer_1" xmlns="http://www.w3.org/2000/svg" xmlns:xlink="http://www.w3.org/1999/xlink" x="0px" y="0px"
	 viewBox="0 0 160 210" style="enable-background:new 0 0 160 210;" xml:space="preserve">
<style type="text/css">
	.st0{fill:#C8F08F;}
	.st1{fill:none;stroke:#000000;stroke-miterlimit:10;}
</style>
<g>
	<g>
		<polygon class="st0" points="40.7,207 1.3,138.9 40.7,70.8 119.3,70.8 158.7,138.9 119.3,207 		"/>
	</g>
	<g>
		<g>
			<polygon points="62.4,157.9 60,157.9 57.3,165.7 57.2,165.7 54.5,157.9 52,157.9 52,167.9 53.7,167.9 53.7,160.1 53.7,160.1 
				56.5,167.9 57.9,167.9 60.7,160.1 60.7,160.1 60.7,167.9 62.4,167.9 62.4,157.9 			"/>
		</g>
		<g>
			<path d="M65.6,157.9H64v1.5h1.6V157.9L65.6,157.9z M65.6,160.6H64v7.2h1.6V160.6L65.6,160.6z"/>
		</g>
		<g>
			<path d="M70,160.4c-2.1,0-3.3,1.7-3.3,3.6c0,2.1,1,3.8,3.3,3.8c0.9,0,1.7-0.5,2.2-1.3h0v1.1c0,1.2-0.6,1.8-1.9,1.8
				c-0.8,0-1.5-0.2-1.7-1.1H67c0.2,1.7,1.8,2.3,3.2,2.3c2.3,0,3.6-1.1,3.6-3.2v-6.9h-1.6v1h0C71.8,160.8,70.9,160.4,70,160.4
				L70,160.4z M70.3,166.6c-1.3,0-1.9-1.2-1.9-2.4c0-1.2,0.5-2.5,1.9-2.5c1.4,0,1.9,1.1,1.9,2.4C72.2,165.3,71.7,166.6,70.3,166.6
				L70.3,166.6z"/>
		</g>
		<g>
			<path d="M78.8,160.4c-1,0-1.9,0.8-2.1,1.6h0v-1.4h-1.5v7.2h1.6v-3.4c0-1.6,0.9-2.5,2-2.5c0.2,0,0.5,0,0.7,0.1v-1.5
				C79.3,160.4,79.2,160.4,78.8,160.4L78.8,160.4z"/>
		</g>
		<g>
			<path d="M83.2,160.4c-1.6,0-3.2,0.5-3.3,2.4h1.6c0.1-0.8,0.7-1.1,1.6-1.1c0.6,0,1.5,0.1,1.5,1c0,1-1,0.8-2.2,1
				c-1.3,0.2-2.8,0.4-2.8,2.3c0,1.4,1.2,2.1,2.5,2.1c0.9,0,1.9-0.3,2.5-0.9c0.1,0.7,0.6,0.9,1.2,0.9c0.3,0,0.8-0.1,1-0.2v-1.1
				c-0.1,0-0.2,0-0.2,0h-0.2c-0.3,0-0.4-0.2-0.4-0.5v-3.7C86.1,161,84.6,160.4,83.2,160.4L83.2,160.4z M82.7,166.8
				c-0.6,0-1.5-0.2-1.5-0.9c0-0.8,0.6-1.1,1.3-1.2c0.7-0.1,1.5-0.1,2-0.4v1.2C84.5,166.4,83.4,166.8,82.7,166.8L82.7,166.8z"/>
		</g>
		<g>
			<path d="M89.8,158.4h-1.6v2.2H87v1.2h1.2v4.3c0,1.2,0.3,1.8,2,1.8c0.3,0,0.7,0,1-0.1v-1.2c-0.2,0.1-0.4,0.1-0.7,0.1
				c-0.7,0-0.8-0.3-0.8-1v-3.9h1.4v-1.2h-1.4V158.4L89.8,158.4z"/>
		</g>
		<g>
			<path d="M95.1,160.4c-2.2,0-3.5,1.8-3.5,3.8c0,2.2,1.3,3.8,3.5,3.8c1.6,0,2.9-0.9,3.3-2.5h-1.5c-0.3,0.8-0.8,1.2-1.8,1.2
				c-1.3,0-1.9-1-1.9-2.1h5.3C98.8,162.5,97.4,160.4,95.1,160.4L95.1,160.4z M93.2,163.6c0-1.1,0.8-1.9,1.9-1.9
				c1.1,0,1.8,0.9,1.8,1.9H93.2L93.2,163.6z"/>
		</g>
		<g>
			<path d="M105,158.4h-1.6v2.2h-1.2v1.2h1.2v4.3c0,1.2,0.3,1.8,2,1.8c0.3,0,0.7,0,1-0.1v-1.2c-0.2,0.1-0.4,0.1-0.7,0.1
				c-0.7,0-0.8-0.3-0.8-1v-3.9h1.4v-1.2H105V158.4L105,158.4z"/>
		</g>
		<g>
			<path d="M110.5,160.4c-2.3,0-3.7,1.6-3.7,3.8c0,2.2,1.3,3.8,3.7,3.8c2.3,0,3.7-1.6,3.7-3.8C114.1,162,112.8,160.4,110.5,160.4
				L110.5,160.4z M110.5,166.8c-1.4,0-2.1-1.3-2.1-2.6c0-1.2,0.6-2.5,2.1-2.5s2.1,1.3,2.1,2.5C112.5,165.5,111.9,166.8,110.5,166.8
				L110.5,166.8z"/>
		</g>
		<g>
			<path d="M69.6,174.4c-3,0-4.8,2.4-4.8,5.2c0,2.9,1.8,5.2,4.8,5.2c2.4,0,4.1-1.7,4.3-4h-1.7c-0.2,1.5-1,2.6-2.5,2.6
				c-2.1,0-3-1.9-3-3.8s0.9-3.8,3-3.8c1.5,0,2.2,0.8,2.5,2h1.8C73.6,175.7,71.9,174.4,69.6,174.4L69.6,174.4z"/>
		</g>
		<g>
			<polygon points="76.5,174.7 74.9,174.7 74.9,184.7 76.5,184.7 76.5,174.7 			"/>
		</g>
		<g>
			<path d="M81.2,177.2c-2.3,0-3.7,1.6-3.7,3.8c0,2.2,1.3,3.8,3.7,3.8c2.3,0,3.7-1.6,3.7-3.8C84.9,178.8,83.6,177.2,81.2,177.2
				L81.2,177.2z M81.2,183.6c-1.4,0-2.1-1.3-2.1-2.6c0-1.2,0.6-2.5,2.1-2.5s2.1,1.3,2.1,2.5C83.3,182.3,82.7,183.6,81.2,183.6
				L81.2,183.6z"/>
		</g>
		<g>
			<path d="M92.3,177.4h-1.6v4.2c0,1.1-0.4,2-1.8,2c-0.9,0-1.4-0.5-1.4-1.7v-4.4H86v4.6c0,1.9,0.8,2.8,2.7,2.8
				c0.8,0,1.7-0.5,2.1-1.2h0v1h1.6V177.4L92.3,177.4z"/>
		</g>
		<g>
			<path d="M100.6,174.7H99v3.7h0c-0.5-0.8-1.5-1.1-2.4-1.1c-1.6,0-3.1,1.1-3.1,3.8c0,2.2,1.1,3.9,3.4,3.9c0.9,0,1.8-0.3,2.2-1.2h0
				v1h1.5V174.7L100.6,174.7z M97.1,183.6c-1.4,0-2-1.2-2-2.5c0-1.3,0.5-2.6,2-2.6c1.2,0,2,0.9,2,2.5
				C99.1,182.3,98.5,183.6,97.1,183.6L97.1,183.6z"/>
		</g>
	</g>
	<g>
		<g>
			<path class="st1" d="M97.2,126.7h-9.3v-1h9.3c0.4,0,9.8-0.1,9.8-10c0-10-9.2-12.5-9.3-12.5l-0.3-0.1l-0.1-0.3
				c-0.1-0.4-2.2-8.9-13-8.9c-10.8,0-13.7,10.4-13.7,10.5l-0.2,0.8l-0.6-0.6c-0.2-0.2-4.3-4.1-9.9-1.4c-5.7,2.7-6.2,7.7-6.2,7.8
				l0,0.4l-0.4,0c-0.3,0-6.4,0.9-6.4,7.3c0,6.4,5.5,7,5.7,7l16.1,0v1H52.5c-0.1,0-6.7-0.6-6.7-8c0-6.4,5.4-7.9,6.9-8.3
				c0.2-1.3,1.4-5.7,6.7-8.2c5-2.3,9,0,10.5,1.1c0.9-2.5,4.6-10.5,14.4-10.5c10.5,0,13.4,7.8,13.9,9.4c1.6,0.5,9.8,3.7,9.8,13.4
				C108,126.6,97.3,126.7,97.2,126.7z"/>
		</g>
		<g>
			<path class="st1" d="M84.4,133h-12v-10.3H60.5l17.7-18l17.9,18.5H84.4V133z M73.4,132h10v-9.8h10.3l-15.6-16l-15.3,15.5h10.6V132
				z"/>
		</g>
		<g>
			<rect x="72.5" y="134.7" class="st1" width="12" height="1.7"/>
		</g>
		<g>
			<rect x="72.5" y="128.5" class="st1" width="12" height="3.9"/>
		</g>
		<g>
			<rect x="72.5" y="137.3" class="st1" width="12" height="1.7"/>
		</g>
		<g>
			<rect x="72.5" y="139.8" class="st1" width="12" height="1.7"/>
		</g>
		<g>
			<rect x="72.5" y="143.1" class="st1" width="12" height="1.7"/>
		</g>
	</g>
</g>
</svg>
