<?xml version="1.0" encoding="utf-8"?>
<!-- Generator: Adobe Illustrator 20.1.0, SVG Export Plug-In . SVG Version: 6.00 Build 0)  -->
<svg version="1.1" id="Layer_1" xmlns="http://www.w3.org/2000/svg" xmlns:xlink="http://www.w3.org/1999/xlink" x="0px" y="0px"
	 viewBox="0 0 160 210" style="enable-background:new 0 0 160 210;" xml:space="preserve">
<style type="text/css">
	.st0{fill:#C8F08F;}
	.st1{fill:none;stroke:#000000;stroke-miterlimit:10;}
</style>
<g>
	<g>
		<polygon class="st0" points="40.7,207 1.3,138.9 40.7,70.8 119.3,70.8 158.7,138.9 119.3,207 		"/>
	</g>
	<g>
		<g>
			<path d="M40.8,156.2H36v10h1.8v-4.1h2.6c1.6,0,2,0.8,2,2.6c0,0.5,0,1,0.3,1.5h1.9c-0.4-0.4-0.5-1.5-0.5-2.6c0-1.6-0.9-2-1.5-2.1
				v0c0.3-0.1,1.7-0.6,1.7-2.5C44.1,157.2,43,156.2,40.8,156.2L40.8,156.2z M37.7,160.8v-3.1h2.8c0.9,0,1.7,0.2,1.7,1.5
				c0,1.1-0.6,1.6-1.7,1.6H37.7L37.7,160.8z"/>
		</g>
		<g>
			<path d="M48.6,158.8c-1.6,0-3.2,0.5-3.3,2.4h1.6c0.1-0.8,0.7-1.1,1.6-1.1c0.6,0,1.5,0.1,1.5,1c0,1-1,0.8-2.2,1
				c-1.3,0.2-2.8,0.4-2.8,2.3c0,1.4,1.2,2.1,2.5,2.1c0.9,0,1.9-0.3,2.5-0.9c0.1,0.7,0.6,0.9,1.2,0.9c0.3,0,0.8-0.1,1-0.2v-1.1
				c-0.1,0-0.2,0-0.2,0h-0.2c-0.3,0-0.4-0.2-0.4-0.5v-3.7C51.5,159.4,50.1,158.8,48.6,158.8L48.6,158.8z M48.2,165.2
				c-0.6,0-1.5-0.2-1.5-0.9c0-0.8,0.6-1.1,1.3-1.2c0.7-0.1,1.5-0.1,2-0.4v1.2C49.9,164.8,48.9,165.2,48.2,165.2L48.2,165.2z"/>
		</g>
		<g>
			<path d="M55.2,156.8h-1.6v2.2h-1.2v1.2h1.2v4.3c0,1.2,0.3,1.8,2,1.8c0.3,0,0.7,0,1-0.1V165c-0.2,0.1-0.4,0.1-0.7,0.1
				c-0.7,0-0.8-0.3-0.8-1v-3.9h1.4V159h-1.4V156.8L55.2,156.8z"/>
		</g>
		<g>
			<path d="M59.4,156.2h-1.6v1.5h1.6V156.2L59.4,156.2z M59.4,159h-1.6v7.2h1.6V159L59.4,159z"/>
		</g>
		<g>
			<path d="M64.1,158.8c-2.3,0-3.7,1.6-3.7,3.8c0,2.2,1.3,3.8,3.7,3.8c2.3,0,3.7-1.6,3.7-3.8C67.8,160.4,66.4,158.8,64.1,158.8
				L64.1,158.8z M64.1,165.2c-1.4,0-2.1-1.3-2.1-2.6c0-1.2,0.6-2.5,2.1-2.5s2.1,1.3,2.1,2.5C66.2,163.9,65.6,165.2,64.1,165.2
				L64.1,165.2z"/>
		</g>
		<g>
			<path d="M72.7,158.8c-1,0-1.8,0.5-2.3,1.3l0,0V159h-1.5v7.2h1.6V162c0-1.1,0.7-1.9,1.8-1.9c1,0,1.4,0.5,1.4,1.6v4.6h1.6v-5
				C75.2,159.6,74.2,158.8,72.7,158.8L72.7,158.8z"/>
		</g>
		<g>
			<path d="M79.8,158.8c-1.6,0-3.2,0.5-3.3,2.4h1.6c0.1-0.8,0.7-1.1,1.6-1.1c0.6,0,1.5,0.1,1.5,1c0,1-1,0.8-2.2,1
				c-1.3,0.2-2.8,0.4-2.8,2.3c0,1.4,1.2,2.1,2.5,2.1c0.9,0,1.9-0.3,2.5-0.9c0.1,0.7,0.6,0.9,1.2,0.9c0.3,0,0.8-0.1,1-0.2v-1.1
				c-0.1,0-0.2,0-0.2,0h-0.2c-0.3,0-0.4-0.2-0.4-0.5v-3.7C82.7,159.4,81.2,158.8,79.8,158.8L79.8,158.8z M79.3,165.2
				c-0.6,0-1.5-0.2-1.5-0.9c0-0.8,0.6-1.1,1.3-1.2c0.7-0.1,1.5-0.1,2-0.4v1.2C81.1,164.8,80,165.2,79.3,165.2L79.3,165.2z"/>
		</g>
		<g>
			<polygon points="86,156.2 84.5,156.2 84.5,166.2 86,166.2 86,156.2 			"/>
		</g>
		<g>
			<path d="M89.1,156.2h-1.6v1.5h1.6V156.2L89.1,156.2z M89.1,159h-1.6v7.2h1.6V159L89.1,159z"/>
		</g>
		<g>
			<polygon points="96.2,159 90.3,159 90.3,160.2 94,160.2 90,165.1 90,166.2 96.4,166.2 96.4,165 92,165 96.2,160.1 96.2,159 			
				"/>
		</g>
		<g>
			<path d="M100.2,158.8c-2.2,0-3.5,1.8-3.5,3.8c0,2.2,1.3,3.8,3.5,3.8c1.6,0,2.9-0.9,3.3-2.5H102c-0.3,0.8-0.8,1.2-1.8,1.2
				c-1.3,0-1.9-1-1.9-2.1h5.3C103.8,160.8,102.4,158.8,100.2,158.8L100.2,158.8z M98.3,162c0-1.1,0.8-1.9,1.9-1.9
				c1.1,0,1.8,0.9,1.8,1.9H98.3L98.3,162z"/>
		</g>
		<g>
			<path d="M110.3,156.2c-1,0-2,0.3-2,2.2v0.6h-1.2v1.2h1.2v6.1h1.6v-6.1h1.4V159h-1.4v-0.7c0-0.6,0.4-0.8,0.8-0.8
				c0.3,0,0.5,0,0.7,0.1v-1.2C111.2,156.3,110.9,156.2,110.3,156.2L110.3,156.2z"/>
		</g>
		<g>
			<path d="M115,158.8c-2.3,0-3.7,1.6-3.7,3.8c0,2.2,1.3,3.8,3.7,3.8c2.3,0,3.7-1.6,3.7-3.8C118.7,160.4,117.4,158.8,115,158.8
				L115,158.8z M115,165.2c-1.4,0-2.1-1.3-2.1-2.6c0-1.2,0.6-2.5,2.1-2.5s2.1,1.3,2.1,2.5C117.1,163.9,116.5,165.2,115,165.2
				L115,165.2z"/>
		</g>
		<g>
			<path d="M123.4,158.8c-1,0-1.9,0.8-2.1,1.6h0V159h-1.5v7.2h1.6v-3.4c0-1.6,0.9-2.5,2-2.5c0.2,0,0.5,0,0.7,0.1v-1.5
				C123.9,158.8,123.8,158.8,123.4,158.8L123.4,158.8z"/>
		</g>
		<g>
			<path d="M66.3,172.8c-3,0-4.8,2.4-4.8,5.2c0,2.9,1.8,5.2,4.8,5.2c2.4,0,4.1-1.7,4.3-4h-1.7c-0.2,1.5-1,2.6-2.5,2.6
				c-2.1,0-3-1.9-3-3.8s0.9-3.8,3-3.8c1.5,0,2.2,0.8,2.5,2h1.8C70.3,174,68.5,172.8,66.3,172.8L66.3,172.8z"/>
		</g>
		<g>
			<polygon points="73.2,173 71.6,173 71.6,183 73.2,183 73.2,173 			"/>
		</g>
		<g>
			<path d="M77.9,175.6c-2.3,0-3.7,1.6-3.7,3.8c0,2.2,1.3,3.8,3.7,3.8c2.3,0,3.7-1.6,3.7-3.8C81.6,177.2,80.2,175.6,77.9,175.6
				L77.9,175.6z M77.9,182c-1.4,0-2.1-1.3-2.1-2.6c0-1.2,0.6-2.5,2.1-2.5s2.1,1.3,2.1,2.5C80,180.7,79.4,182,77.9,182L77.9,182z"/>
		</g>
		<g>
			<path d="M89,175.8h-1.6v4.2c0,1.1-0.4,2-1.8,2c-0.9,0-1.4-0.5-1.4-1.7v-4.4h-1.6v4.6c0,1.9,0.8,2.8,2.7,2.8
				c0.8,0,1.7-0.5,2.1-1.2h0v1H89V175.8L89,175.8z"/>
		</g>
		<g>
			<path d="M97.3,173h-1.6v3.7h0c-0.5-0.8-1.5-1.1-2.4-1.1c-1.6,0-3.1,1.1-3.1,3.8c0,2.2,1.1,3.9,3.4,3.9c0.9,0,1.8-0.3,2.2-1.2h0v1
				h1.5V173L97.3,173z M93.7,182c-1.4,0-2-1.2-2-2.5c0-1.3,0.5-2.6,2-2.6c1.2,0,2,0.9,2,2.5C95.8,180.7,95.2,182,93.7,182L93.7,182z
				"/>
		</g>
	</g>
	<g>
		<g>
			<path class="st1" d="M57.3,138.1c-0.2,0-11.3-2.3-11.3-14.3c0-11,10.5-12.3,12.6-12.4c0.9-2.5,7.3-18.3,23.2-16.8
				c7.1,0.6,12.4,3.2,15.7,7.5c4.5,6,3.9,13.5,3.6,15.6c1.6,0.3,6.2,1.8,6.2,9.9c0,9.9-11.1,10.5-11.2,10.5L57.3,138.1z M79.8,95.5
				c-15,0-20.4,16.4-20.4,16.6l-0.1,0.3l-0.4,0c-0.5,0-11.9,0.3-11.9,11.4c0,11.2,9.9,13.2,10.3,13.3l38.7,0
				c0.4,0,10.3-0.6,10.3-9.5c0-8.9-5.7-9-5.8-9h-0.6l0.1-0.6c0-0.1,1.6-8.8-3.3-15.3c-3.1-4.1-8.2-6.5-15-7.1
				C81.1,95.5,80.5,95.5,79.8,95.5z"/>
		</g>
		<g>
			<path class="st1" d="M89.3,121.4H72.1v-14.5h17.2V121.4z M73.1,120.4h15.2v-12.5H73.1V120.4z"/>
		</g>
		<g>
			<polygon class="st1" points="76.2,114.3 75.5,115.3 79.2,118 85.5,111.8 84.6,110.9 79.1,116.5 			"/>
		</g>
		<g>
			<path class="st1" d="M87.5,107.4h-1v-4.6c0-1.9-1.3-3.5-3-3.5h-5.3c-1.6,0-3,1.6-3,3.5v4.6h-1v-4.6c0-2.5,1.8-4.5,4-4.5h5.3
				c2.2,0,4,2,4,4.5V107.4z"/>
		</g>
	</g>
</g>
</svg>
