<?xml version="1.0" encoding="utf-8"?>
<!-- Generator: Adobe Illustrator 20.1.0, SVG Export Plug-In . SVG Version: 6.00 Build 0)  -->
<svg version="1.1" id="Layer_1" xmlns="http://www.w3.org/2000/svg" xmlns:xlink="http://www.w3.org/1999/xlink" x="0px" y="0px"
	 viewBox="0 0 143 90" style="enable-background:new 0 0 143 90;" xml:space="preserve">
<style type="text/css">
	.st0{fill:#306733;}
	.st1{fill:none;}
</style>
<g>
	<path class="st0" d="M45.8,44.8c0,0.8,0.6,1.6,1.4,1.8l19.4,5.1c0.5,0.1,0.9,0.2,1.4,0.2c0.6,0,1.2-0.1,1.8-0.3l26.1-9
		c0.8-0.3,1.3-1.1,1.3-1.9c0-0.9-0.7-1.6-1.5-1.8l-3.3-0.7l-21.5,7.4C70,45.9,69,46,68,46c-0.8,0-1.5-0.1-2.3-0.3l-15.3-4l-3.4,1.2
		C46.3,43.2,45.8,44,45.8,44.8L45.8,44.8z M45.8,44.8"/>
	<path class="st0" d="M45.8,35.5c0,0.8,0.6,1.6,1.4,1.8l19.4,5.1c0.5,0.1,0.9,0.2,1.4,0.2c0.6,0,1.2-0.1,1.8-0.3l26.1-9
		c0.8-0.3,1.3-1.1,1.3-1.9c0-0.9-0.7-1.6-1.5-1.8l-3.3-0.7l-21.5,7.4C70,36.6,69,36.7,68,36.7c-0.8,0-1.5-0.1-2.3-0.3l-15.3-4
		l-3.4,1.2C46.3,33.9,45.8,34.6,45.8,35.5L45.8,35.5z M45.8,35.5"/>
	<path class="st0" d="M70.9,26.9C70,27.2,69,27.4,68,27.4c-0.8,0-1.5-0.1-2.3-0.3l-15.3-4l-3.4,1.2c-0.8,0.3-1.3,1-1.3,1.9
		c0,0.8,0.6,1.6,1.4,1.8l19.4,5.1c0.5,0.1,0.9,0.2,1.4,0.2c0.6,0,1.2-0.1,1.8-0.3l26.1-9c0.8-0.3,1.3-1.1,1.3-1.9
		c0-0.9-0.7-1.6-1.5-1.8l-3.3-0.7L70.9,26.9z M70.9,26.9"/>
	<path class="st0" d="M47.2,18.6l19.4,5.1c0.5,0.1,0.9,0.2,1.4,0.2c0.6,0,1.2-0.1,1.8-0.3l26.1-9c0.8-0.3,1.3-1.1,1.3-1.9
		c0-0.9-0.7-1.6-1.5-1.8L74.1,6.1C73.7,6,73.3,6,72.9,6c-0.6,0-1.3,0.1-1.9,0.3l-24,8.7c-0.8,0.3-1.3,1-1.3,1.9
		C45.8,17.7,46.4,18.4,47.2,18.6L47.2,18.6z M47.2,18.6"/>
	<rect x="45.7" y="6" class="st1" width="51.5" height="46"/>
</g>
<g>
	<path class="st0" d="M16.3,57.6h3.4c3.1,0,4.8,1.6,4.8,4.8c0,3.3-1.5,5.2-4.8,5.2h-3.4V57.6z M17.7,66.5h2.2c0.9,0,3.4-0.3,3.4-3.9
		c0-2.4-0.9-3.8-3.3-3.8h-2.2V66.5z"/>
	<path class="st0" d="M32.2,67.6c-0.2,0.1-0.5,0.2-0.9,0.2c-0.6,0-1-0.3-1-1.1c-0.7,0.8-1.5,1.1-2.5,1.1c-1.3,0-2.4-0.6-2.4-2
		c0-1.6,1.2-2,2.5-2.2c1.3-0.3,2.4-0.2,2.4-1.1c0-1.1-0.9-1.2-1.6-1.2c-1,0-1.8,0.3-1.8,1.4h-1.2c0.1-1.8,1.4-2.4,3.1-2.4
		c1.3,0,2.7,0.3,2.7,2v3.7c0,0.6,0,0.8,0.4,0.8c0.1,0,0.2,0,0.4-0.1V67.6z M30.2,63.9c-0.9,0.7-3.6,0-3.6,1.8c0,0.8,0.7,1.1,1.4,1.1
		c1.6,0,2.2-1,2.2-1.6V63.9z"/>
	<path class="st0" d="M34.8,60.4h1.4v1.1h-1.4v4.5c0,0.6,0.2,0.6,0.9,0.6h0.5v1.1h-0.9c-1.2,0-1.7-0.3-1.7-1.6v-4.6h-1.2v-1.1h1.2
		v-2.2h1.2V60.4z"/>
	<path class="st0" d="M43.7,67.6c-0.2,0.1-0.5,0.2-0.9,0.2c-0.6,0-1-0.3-1-1.1c-0.7,0.8-1.5,1.1-2.5,1.1c-1.3,0-2.4-0.6-2.4-2
		c0-1.6,1.2-2,2.5-2.2c1.3-0.3,2.4-0.2,2.4-1.1c0-1.1-0.9-1.2-1.6-1.2c-1,0-1.8,0.3-1.8,1.4h-1.2c0.1-1.8,1.4-2.4,3.1-2.4
		c1.3,0,2.7,0.3,2.7,2v3.7c0,0.6,0,0.8,0.4,0.8c0.1,0,0.2,0,0.4-0.1V67.6z M41.7,63.9c-0.9,0.7-3.6,0-3.6,1.8c0,0.8,0.7,1.1,1.4,1.1
		c1.6,0,2.2-1,2.2-1.6V63.9z"/>
	<path class="st0" d="M53.6,66.4c-0.6,0.9-1.7,1.4-2.8,1.4c-2.7,0-3.1-1.9-3.1-2.7c0-1.6,1.1-2.4,2.3-3c-0.6-0.8-1.1-1.3-1.1-2.4
		c0-1.1,0.8-2.1,2.3-2.1c1.2,0,2.4,0.7,2.4,2c0,1.2-0.9,2-1.9,2.6l1.8,2.2c0.2-0.5,0.3-1,0.3-1.6H55c-0.1,1.2-0.3,1.6-0.7,2.5
		l1.9,2.3h-1.6L53.6,66.4z M50.7,62.8c-0.9,0.5-1.7,1.1-1.7,2.3c0,1,0.9,1.7,1.9,1.7c0.9,0,1.6-0.5,2.1-1.2L50.7,62.8z M52.4,59.7
		c0-0.6-0.4-1.1-1.1-1.1c-0.6,0-1.1,0.3-1.1,1.1c0,0.6,0.5,1.2,1,1.7C51.6,61.1,52.4,60.6,52.4,59.7z"/>
	<path class="st0" d="M63.2,57.6h1.5l3.9,10h-1.5l-1.1-3h-4.2l-1.1,3h-1.4L63.2,57.6z M62.2,63.5h3.4l-1.7-4.7h0L62.2,63.5z"/>
	<path class="st0" d="M69.5,60.4h1.2v1h0c0.4-0.8,1.3-1.1,2.3-1.1c2.2,0,3.3,1.8,3.3,3.8c0,2.1-1.1,3.8-3.3,3.8
		c-0.7,0-1.8-0.3-2.3-1.1h0v3.7h-1.2V60.4z M72.9,61.2c-1.6,0-2.2,1.4-2.2,2.7c0,1.4,0.6,2.7,2.3,2.7c1.6,0,2.2-1.4,2.2-2.8
		C75.2,62.6,74.5,61.2,72.9,61.2z"/>
	<path class="st0" d="M77.6,60.4h1.2v1h0c0.4-0.8,1.3-1.1,2.3-1.1c2.2,0,3.3,1.8,3.3,3.8c0,2.1-1.1,3.8-3.3,3.8
		c-0.7,0-1.8-0.3-2.3-1.1h0v3.7h-1.2V60.4z M81,61.2c-1.6,0-2.2,1.4-2.2,2.7c0,1.4,0.6,2.7,2.3,2.7c1.6,0,2.2-1.4,2.2-2.8
		C83.2,62.6,82.5,61.2,81,61.2z"/>
	<path class="st0" d="M85.7,57.6h1.2v10h-1.2V57.6z"/>
	<path class="st0" d="M89.6,59.1h-1.2v-1.5h1.2V59.1z M88.4,60.4h1.2v7.2h-1.2V60.4z"/>
	<path class="st0" d="M96.1,62.7c-0.2-0.9-0.8-1.4-1.8-1.4c-1.7,0-2.3,1.4-2.3,2.8c0,1.3,0.6,2.6,2.1,2.6c1.2,0,1.8-0.7,2-1.8h1.2
		c-0.3,1.8-1.4,2.8-3.2,2.8c-2.2,0-3.4-1.5-3.4-3.7c0-2.2,1.1-3.9,3.4-3.9c1.7,0,2.9,0.8,3.1,2.5H96.1z"/>
	<path class="st0" d="M105,67.6c-0.2,0.1-0.5,0.2-0.9,0.2c-0.6,0-1-0.3-1-1.1c-0.7,0.8-1.5,1.1-2.5,1.1c-1.3,0-2.4-0.6-2.4-2
		c0-1.6,1.2-2,2.5-2.2c1.3-0.3,2.4-0.2,2.4-1.1c0-1.1-0.9-1.2-1.6-1.2c-1,0-1.8,0.3-1.8,1.4h-1.2c0.1-1.8,1.4-2.4,3.1-2.4
		c1.3,0,2.7,0.3,2.7,2v3.7c0,0.6,0,0.8,0.4,0.8c0.1,0,0.2,0,0.4-0.1V67.6z M103.1,63.9c-0.9,0.7-3.6,0-3.6,1.8
		c0,0.8,0.7,1.1,1.4,1.1c1.6,0,2.2-1,2.2-1.6V63.9z"/>
	<path class="st0" d="M107.7,60.4h1.4v1.1h-1.4v4.5c0,0.6,0.2,0.6,0.9,0.6h0.5v1.1h-0.9c-1.2,0-1.7-0.3-1.7-1.6v-4.6h-1.2v-1.1h1.2
		v-2.2h1.2V60.4z"/>
	<path class="st0" d="M111.5,59.1h-1.2v-1.5h1.2V59.1z M110.3,60.4h1.2v7.2h-1.2V60.4z"/>
	<path class="st0" d="M116.2,60.2c2.3,0,3.5,1.7,3.5,3.8c0,2.1-1.2,3.8-3.5,3.8s-3.5-1.7-3.5-3.8C112.7,61.9,113.9,60.2,116.2,60.2z
		 M116.2,66.7c1.2,0,2.3-1,2.3-2.7s-1-2.7-2.3-2.7s-2.3,1-2.3,2.7S115,66.7,116.2,66.7z"/>
	<path class="st0" d="M120.9,60.4h1.1v1.1h0c0.5-0.9,1.3-1.3,2.4-1.3c1.9,0,2.5,1.1,2.5,2.6v4.8h-1.2v-4.9c0-0.9-0.6-1.5-1.5-1.5
		c-1.4,0-2.1,1-2.1,2.3v4.1h-1.2V60.4z"/>
	<path class="st0" d="M37.8,77.4c-0.3-1.4-1.4-2.1-2.8-2.1c-2.4,0-3.4,2-3.4,4c0,2.3,1,4.2,3.4,4.2c1.7,0,2.8-1.2,2.9-2.9h1.3
		c-0.3,2.5-1.8,4-4.3,4c-3.1,0-4.6-2.3-4.6-5.2c0-2.9,1.7-5.3,4.7-5.3c2.1,0,3.8,1.1,4.1,3.2H37.8z"/>
	<path class="st0" d="M43.7,77c2.3,0,3.5,1.7,3.5,3.8c0,2.1-1.2,3.8-3.5,3.8c-2.3,0-3.5-1.7-3.5-3.8C40.2,78.7,41.4,77,43.7,77z
		 M43.7,83.5c1.2,0,2.3-1,2.3-2.7S45,78,43.7,78c-1.2,0-2.3,1-2.3,2.7S42.5,83.5,43.7,83.5z"/>
	<path class="st0" d="M48.4,77.2h1.1v1.1h0c0.5-0.9,1.3-1.3,2.4-1.3c1.9,0,2.5,1.1,2.5,2.6v4.8h-1.2v-4.9c0-0.9-0.6-1.5-1.5-1.5
		c-1.4,0-2.1,1-2.1,2.3v4.1h-1.2V77.2z"/>
	<path class="st0" d="M56.7,82.1c0,1.1,1,1.4,1.9,1.4c0.7,0,1.8-0.2,1.8-1.1c0-1.9-4.7-0.6-4.7-3.4c0-1.5,1.4-2.1,2.7-2.1
		c1.6,0,2.9,0.5,3,2.3h-1.2c-0.1-0.9-0.9-1.2-1.7-1.2c-0.7,0-1.5,0.2-1.5,0.9c0,0.8,1.3,1,2.4,1.3c1.2,0.3,2.4,0.7,2.4,2.1
		c0,1.7-1.6,2.3-3.1,2.3c-1.6,0-3-0.7-3.1-2.5H56.7z"/>
	<path class="st0" d="M66,77c2.3,0,3.5,1.7,3.5,3.8c0,2.1-1.2,3.8-3.5,3.8c-2.3,0-3.5-1.7-3.5-3.8C62.5,78.7,63.7,77,66,77z
		 M66,83.5c1.2,0,2.3-1,2.3-2.7S67.2,78,66,78c-1.2,0-2.3,1-2.3,2.7S64.7,83.5,66,83.5z"/>
	<path class="st0" d="M70.7,74.4h1.2v10h-1.2V74.4z"/>
	<path class="st0" d="M74.6,75.9h-1.2v-1.5h1.2V75.9z M73.5,77.2h1.2v7.2h-1.2V77.2z"/>
	<path class="st0" d="M82.7,84.4h-1.2v-1h0c-0.4,0.8-1.3,1.1-2.3,1.1c-2.2,0-3.3-1.8-3.3-3.8c0-2,1.1-3.8,3.3-3.8
		c0.7,0,1.8,0.3,2.3,1.1h0v-3.7h1.2V84.4z M79.4,83.5c1.6,0,2.2-1.4,2.2-2.7c0-1.4-0.6-2.7-2.3-2.7c-1.6,0-2.2,1.4-2.2,2.8
		C77.1,82.2,77.8,83.5,79.4,83.5z"/>
	<path class="st0" d="M90.7,84.4c-0.2,0.1-0.5,0.2-0.9,0.2c-0.6,0-1-0.3-1-1.1c-0.7,0.8-1.5,1.1-2.5,1.1c-1.3,0-2.4-0.6-2.4-2
		c0-1.6,1.2-2,2.5-2.2c1.3-0.3,2.4-0.2,2.4-1.1c0-1-0.9-1.2-1.6-1.2c-1,0-1.8,0.3-1.8,1.4h-1.2c0.1-1.8,1.4-2.4,3.1-2.4
		c1.3,0,2.7,0.3,2.7,2v3.7c0,0.6,0,0.8,0.4,0.8c0.1,0,0.2,0,0.4-0.1V84.4z M88.7,80.7c-0.9,0.7-3.6,0-3.6,1.8c0,0.8,0.7,1.1,1.4,1.1
		c1.6,0,2.2-1,2.2-1.6V80.7z"/>
	<path class="st0" d="M93.3,77.2h1.4v1.1h-1.4v4.5c0,0.6,0.2,0.6,0.9,0.6h0.5v1.1h-0.9c-1.2,0-1.7-0.3-1.7-1.6v-4.6h-1.2v-1.1h1.2
		V75h1.2V77.2z"/>
	<path class="st0" d="M97.1,75.9h-1.2v-1.5h1.2V75.9z M95.9,77.2h1.2v7.2h-1.2V77.2z"/>
	<path class="st0" d="M101.8,77c2.3,0,3.5,1.7,3.5,3.8c0,2.1-1.2,3.8-3.5,3.8s-3.5-1.7-3.5-3.8C98.3,78.7,99.5,77,101.8,77z
		 M101.8,83.5c1.2,0,2.3-1,2.3-2.7s-1-2.7-2.3-2.7s-2.3,1-2.3,2.7S100.6,83.5,101.8,83.5z"/>
	<path class="st0" d="M106.5,77.2h1.1v1.1h0c0.5-0.9,1.3-1.3,2.4-1.3c1.9,0,2.5,1.1,2.5,2.6v4.8h-1.2v-4.9c0-0.9-0.6-1.5-1.5-1.5
		c-1.4,0-2.1,1-2.1,2.3v4.1h-1.2V77.2z"/>
</g>
</svg>
