<?xml version="1.0" encoding="utf-8"?>
<!-- Generator: Adobe Illustrator 20.1.0, SVG Export Plug-In . SVG Version: 6.00 Build 0)  -->
<svg version="1.1" id="Layer_1" xmlns="http://www.w3.org/2000/svg" xmlns:xlink="http://www.w3.org/1999/xlink" x="0px" y="0px"
	 viewBox="0 0 143 90" style="enable-background:new 0 0 143 90;" xml:space="preserve">
<style type="text/css">
	.st0{fill:#306733;}
	.st1{fill:none;}
</style>
<g id="XMLID_249_">
	<polyline id="XMLID_279_" class="st0" points="80.7,20.5 77.4,15.1 71.5,16.1 65.6,15.1 62.4,20.5 71.5,22.5 80.7,20.5 	"/>
	<path id="XMLID_278_" class="st0" d="M75.8,12.4l-3.5-5.9C72.1,6.2,71.8,6,71.5,6c-0.3,0-0.5,0.1-0.7,0.5l-3.5,5.9l4.3,1L75.8,12.4
		"/>
	<polyline id="XMLID_277_" class="st0" points="90.5,36.8 87.1,31.4 71.5,34.5 55.9,31.4 52.7,36.8 71.5,41.1 90.5,36.8 	"/>
	<path id="XMLID_276_" class="st0" d="M95.6,45.4l-3.5-5.9l-20.5,4.3L51,39.5l-3.5,5.9c-0.4,0.6,0,1.2,0.9,1.2L71.5,52l23.2-5.5
		C95.6,46.5,95.9,46,95.6,45.4"/>
	<polyline id="XMLID_275_" class="st0" points="85.5,28.7 82.3,23.2 71.5,25.1 60.7,23.2 57.5,28.7 71.5,31.8 85.5,28.7 	"/>
</g>
<g>
	<path class="st0" d="M28.5,66h3.4c3.1,0,4.8,1.6,4.8,4.8c0,3.3-1.5,5.2-4.8,5.2h-3.4V66z M29.8,74.9H32c0.9,0,3.4-0.3,3.4-3.9
		c0-2.4-0.9-3.8-3.3-3.8h-2.2V74.9z"/>
	<path class="st0" d="M44.2,73.7c-0.3,1.6-1.5,2.5-3.1,2.5c-2.3,0-3.4-1.6-3.5-3.8c0-2.2,1.4-3.8,3.4-3.8c2.6,0,3.3,2.4,3.3,4.1
		h-5.4c0,1.3,0.7,2.4,2.3,2.4c1,0,1.7-0.5,1.9-1.4H44.2z M43,71.7c-0.1-1.1-0.9-2-2.1-2c-1.2,0-2,0.9-2.1,2H43z"/>
	<path class="st0" d="M46.3,73.7c0,1.1,1,1.4,1.9,1.4C49,75.1,50,75,50,74c0-1.9-4.7-0.6-4.7-3.4c0-1.5,1.4-2.1,2.7-2.1
		c1.6,0,2.9,0.5,3,2.3h-1.2c-0.1-0.9-0.9-1.2-1.7-1.2c-0.7,0-1.5,0.2-1.5,0.9c0,0.8,1.3,1,2.4,1.3c1.2,0.3,2.4,0.7,2.4,2.1
		c0,1.7-1.6,2.3-3.1,2.3c-1.6,0-3-0.7-3.1-2.5H46.3z"/>
	<path class="st0" d="M53.6,67.5h-1.2V66h1.2V67.5z M52.4,68.8h1.2V76h-1.2V68.8z"/>
	<path class="st0" d="M61.4,75.4c0,2.4-1.1,3.6-3.4,3.6c-1.4,0-2.9-0.6-3-2.1h1.2c0,0.9,1.1,1.2,1.9,1.2c1.6,0,2.2-1.1,2.2-2.7v-0.5
		h0c-0.4,0.9-1.3,1.3-2.3,1.3c-2.2,0-3.2-1.7-3.2-3.7c0-1.7,0.8-3.8,3.3-3.8c0.9,0,1.7,0.4,2.2,1.2h0v-1h1.1V75.4z M60.2,72.2
		c0-1.3-0.6-2.6-2.1-2.6c-1.5,0-2.1,1.2-2.1,2.6c0,1.3,0.5,2.8,2,2.8S60.2,73.6,60.2,72.2z"/>
	<path class="st0" d="M62.9,68.8H64v1.1h0c0.5-0.9,1.3-1.3,2.4-1.3c1.9,0,2.5,1.1,2.5,2.6V76h-1.2v-4.9c0-0.9-0.6-1.5-1.5-1.5
		c-1.4,0-2.1,1-2.1,2.3V76h-1.2V68.8z"/>
	<path class="st0" d="M79.4,74.8c-0.6,0.9-1.7,1.4-2.8,1.4c-2.7,0-3.1-1.9-3.1-2.7c0-1.6,1.1-2.4,2.3-3c-0.6-0.8-1.1-1.3-1.1-2.4
		c0-1.1,0.8-2.1,2.3-2.1c1.2,0,2.4,0.7,2.4,2c0,1.2-0.9,2-1.9,2.6l1.8,2.2c0.2-0.5,0.3-1,0.3-1.6h1.1c-0.1,1.2-0.3,1.6-0.7,2.5
		L82,76h-1.6L79.4,74.8z M76.4,71.2c-0.9,0.5-1.7,1.1-1.7,2.3c0,1,0.9,1.7,1.9,1.7c0.9,0,1.6-0.5,2.1-1.2L76.4,71.2z M78.1,68.1
		c0-0.6-0.4-1.1-1.1-1.1c-0.6,0-1.1,0.3-1.1,1.1c0,0.6,0.5,1.2,1,1.7C77.4,69.5,78.1,69,78.1,68.1z"/>
	<path class="st0" d="M86.1,66h3.6c0.9,0,2.1,0,2.6,0.4c0.7,0.4,1.2,1.1,1.2,2.1c0,1.1-0.5,1.9-1.5,2.2v0c1.2,0.3,1.9,1.2,1.9,2.4
		c0,1.5-1.1,2.9-3,2.9h-4.8V66z M87.4,70.3h2.7c1.5,0,2.1-0.5,2.1-1.6c0-1.4-1-1.6-2.1-1.6h-2.7V70.3z M87.4,74.9h3.3
		c1.2,0,1.9-0.7,1.9-1.8c0-1.3-1.1-1.7-2.2-1.7h-3V74.9z"/>
	<path class="st0" d="M101.2,76h-1.1v-1.1h0c-0.5,0.9-1.3,1.3-2.4,1.3c-1.9,0-2.5-1.1-2.5-2.6v-4.8h1.2v4.9c0,0.9,0.6,1.5,1.5,1.5
		c1.4,0,2.1-1,2.1-2.3v-4.1h1.2V76z"/>
	<path class="st0" d="M103.9,67.5h-1.2V66h1.2V67.5z M102.7,68.8h1.2V76h-1.2V68.8z"/>
	<path class="st0" d="M105.5,66h1.2v10h-1.2V66z"/>
	<path class="st0" d="M114.7,76h-1.2v-1h0c-0.4,0.8-1.3,1.1-2.3,1.1c-2.2,0-3.3-1.8-3.3-3.8c0-2,1.1-3.8,3.3-3.8
		c0.7,0,1.8,0.3,2.3,1.1h0V66h1.2V76z M111.4,75.1c1.6,0,2.2-1.4,2.2-2.7c0-1.4-0.6-2.7-2.3-2.7c-1.6,0-2.2,1.4-2.2,2.8
		C109.1,73.8,109.8,75.1,111.4,75.1z"/>
</g>
</svg>
