<?xml version="1.0" encoding="utf-8"?>
<!-- Generator: Adobe Illustrator 20.1.0, SVG Export Plug-In . SVG Version: 6.00 Build 0)  -->
<svg version="1.1" id="Layer_1" xmlns="http://www.w3.org/2000/svg" xmlns:xlink="http://www.w3.org/1999/xlink" x="0px" y="0px"
	 viewBox="0 0 143 90" style="enable-background:new 0 0 143 90;" xml:space="preserve">
<style type="text/css">
	.st0{fill:#306733;}
	.st1{fill:none;}
</style>
<g id="XMLID_1_">
	<path id="XMLID_7_" class="st0" d="M94.6,19.3C94.4,19,81.7,19,81.7,19c-0.9,0-1.2,0.5-0.6,1.2l2.3,2.7l0.2,0.2
		c-2.2,2.2-4,4.1-5.5,6.1l-1.9,12.3c2.8-5.2,7.4-9,12.3-12.5l0.4,0.5l2.2,2.7c0.6,0.7,1.2,0.5,1.3-0.3
		C92.4,31.7,94.8,19.6,94.6,19.3"/>
	<path id="XMLID_6_" class="st0" d="M65.5,30c-1.6-2.2-3.5-4.4-6.1-6.9l0.2-0.2l2.3-2.7c0.6-0.7,0.3-1.2-0.6-1.2
		c0,0-12.7,0-12.9,0.3c-0.2,0.3,2.3,12.4,2.3,12.4c0.2,0.9,0.8,1,1.3,0.3l2.2-2.7l0.4-0.5c5.2,3.6,9.9,7.6,12.7,13.2L65.5,30"/>
	<path id="XMLID_5_" class="st0" d="M80.3,15.7c0,0-8.1-9.7-8.5-9.7c-0.4,0-8.4,9.6-8.4,9.6c-0.6,0.7-0.3,1.2,0.6,1.2h3.4h0.4
		L70.1,52h2.6l3-35.2H76h3.5C80.6,16.9,80.9,16.3,80.3,15.7"/>
</g>
<g>
	<path class="st0" d="M11.1,66h3.4c3.1,0,4.8,1.6,4.8,4.8c0,3.3-1.5,5.2-4.8,5.2h-3.4V66z M12.5,74.9h2.2c0.9,0,3.4-0.3,3.4-3.9
		c0-2.4-0.9-3.8-3.3-3.8h-2.2V74.9z"/>
	<path class="st0" d="M21.8,67.5h-1.2V66h1.2V67.5z M20.7,68.8h1.2V76h-1.2V68.8z"/>
	<path class="st0" d="M24.2,73.7c0,1.1,1,1.4,1.9,1.4c0.7,0,1.8-0.2,1.8-1.1c0-1.9-4.7-0.6-4.7-3.4c0-1.5,1.4-2.1,2.7-2.1
		c1.6,0,2.9,0.5,3,2.3h-1.2c-0.1-0.9-0.9-1.2-1.7-1.2c-0.7,0-1.5,0.2-1.5,0.9c0,0.8,1.3,1,2.4,1.3c1.2,0.3,2.4,0.7,2.4,2.1
		c0,1.7-1.6,2.3-3.1,2.3c-1.6,0-3-0.7-3.1-2.5H24.2z"/>
	<path class="st0" d="M35.3,71.1c-0.2-0.9-0.8-1.4-1.8-1.4c-1.7,0-2.3,1.4-2.3,2.8c0,1.3,0.6,2.6,2.1,2.6c1.2,0,1.8-0.7,2-1.8h1.2
		c-0.3,1.8-1.4,2.8-3.2,2.8c-2.2,0-3.4-1.5-3.4-3.7c0-2.2,1.1-3.9,3.4-3.9c1.7,0,2.9,0.8,3.1,2.5H35.3z"/>
	<path class="st0" d="M40.9,68.6c2.3,0,3.5,1.7,3.5,3.8c0,2.1-1.2,3.8-3.5,3.8s-3.5-1.7-3.5-3.8C37.4,70.3,38.6,68.6,40.9,68.6z
		 M40.9,75.1c1.2,0,2.3-1,2.3-2.7s-1-2.7-2.3-2.7s-2.3,1-2.3,2.7S39.6,75.1,40.9,75.1z"/>
	<path class="st0" d="M48.5,76h-1.3l-2.7-7.2h1.3l2,6h0l2-6h1.2L48.5,76z"/>
	<path class="st0" d="M57.9,73.7c-0.3,1.6-1.5,2.5-3.1,2.5c-2.3,0-3.4-1.6-3.5-3.8c0-2.2,1.4-3.8,3.4-3.8c2.6,0,3.3,2.4,3.3,4.1
		h-5.4c0,1.3,0.7,2.4,2.3,2.4c1,0,1.7-0.5,1.9-1.4H57.9z M56.7,71.7c-0.1-1.1-0.9-2-2.1-2c-1.2,0-2,0.9-2.1,2H56.7z"/>
	<path class="st0" d="M59.2,68.8h1.1v1.5h0c0.6-1.2,1.4-1.7,2.7-1.7v1.3c-1.9,0-2.6,1.1-2.6,2.9V76h-1.2V68.8z"/>
	<path class="st0" d="M67.3,77c-0.6,1.4-1,1.9-2.1,1.9c-0.3,0-0.6,0-0.8-0.1v-1.1c0.2,0.1,0.5,0.2,0.7,0.2c0.5,0,0.8-0.2,1-0.7
		l0.5-1.2l-2.9-7.2H65l2.1,5.9h0l2-5.9h1.3L67.3,77z"/>
	<path class="st0" d="M80.3,74.8c-0.6,0.9-1.7,1.4-2.8,1.4c-2.7,0-3.1-1.9-3.1-2.7c0-1.6,1.1-2.4,2.3-3c-0.6-0.8-1.1-1.3-1.1-2.4
		c0-1.1,0.8-2.1,2.3-2.1c1.2,0,2.4,0.7,2.4,2c0,1.2-0.9,2-1.9,2.6l1.8,2.2c0.2-0.5,0.3-1,0.3-1.6h1.1c-0.1,1.2-0.3,1.6-0.7,2.5
		l1.9,2.3h-1.6L80.3,74.8z M77.4,71.2c-0.9,0.5-1.7,1.1-1.7,2.3c0,1,0.9,1.7,1.9,1.7c0.9,0,1.6-0.5,2.1-1.2L77.4,71.2z M79.1,68.1
		c0-0.6-0.4-1.1-1.1-1.1c-0.6,0-1.1,0.3-1.1,1.1c0,0.6,0.5,1.2,1,1.7C78.3,69.5,79.1,69,79.1,68.1z"/>
	<path class="st0" d="M87.1,66h1.3v10h-1.3V66z"/>
	<path class="st0" d="M90.2,68.8h1.1v1.1h0c0.5-0.9,1.3-1.3,2.4-1.3c1.9,0,2.5,1.1,2.5,2.6V76H95v-4.9c0-0.9-0.6-1.5-1.5-1.5
		c-1.4,0-2.1,1-2.1,2.3V76h-1.2V68.8z"/>
	<path class="st0" d="M98.4,73.7c0,1.1,1,1.4,1.9,1.4c0.7,0,1.8-0.2,1.8-1.1c0-1.9-4.7-0.6-4.7-3.4c0-1.5,1.4-2.1,2.7-2.1
		c1.6,0,2.9,0.5,3,2.3h-1.2c-0.1-0.9-0.9-1.2-1.7-1.2c-0.7,0-1.5,0.2-1.5,0.9c0,0.8,1.3,1,2.4,1.3c1.2,0.3,2.4,0.7,2.4,2.1
		c0,1.7-1.6,2.3-3.1,2.3c-1.6,0-3-0.7-3.1-2.5H98.4z"/>
	<path class="st0" d="M105.7,67.5h-1.2V66h1.2V67.5z M104.6,68.8h1.2V76h-1.2V68.8z"/>
	<path class="st0" d="M113.6,75.4c0,2.4-1.1,3.6-3.4,3.6c-1.4,0-2.9-0.6-3-2.1h1.2c0,0.9,1.1,1.2,1.9,1.2c1.6,0,2.2-1.1,2.2-2.7
		v-0.5h0c-0.4,0.9-1.3,1.3-2.3,1.3c-2.2,0-3.2-1.7-3.2-3.7c0-1.7,0.8-3.8,3.3-3.8c0.9,0,1.7,0.4,2.2,1.2h0v-1h1.1V75.4z M112.4,72.2
		c0-1.3-0.6-2.6-2.1-2.6c-1.5,0-2.1,1.2-2.1,2.6c0,1.3,0.5,2.8,2,2.8C111.8,75,112.4,73.6,112.4,72.2z"/>
	<path class="st0" d="M115.1,66h1.2v3.8h0c0.4-0.9,1.4-1.2,2.3-1.2c1.9,0,2.5,1.1,2.5,2.6V76h-1.2v-4.9c0-0.9-0.6-1.5-1.5-1.5
		c-1.4,0-2.1,1-2.1,2.3V76h-1.2V66z"/>
	<path class="st0" d="M124.1,68.8h1.4v1.1h-1.4v4.5c0,0.6,0.2,0.6,0.9,0.6h0.5V76h-0.9c-1.2,0-1.7-0.3-1.7-1.6v-4.6h-1.2v-1.1h1.2
		v-2.2h1.2V68.8z"/>
	<path class="st0" d="M127.5,73.7c0,1.1,1,1.4,1.9,1.4c0.7,0,1.8-0.2,1.8-1.1c0-1.9-4.7-0.6-4.7-3.4c0-1.5,1.4-2.1,2.7-2.1
		c1.6,0,2.9,0.5,3,2.3h-1.2c-0.1-0.9-0.9-1.2-1.7-1.2c-0.7,0-1.5,0.2-1.5,0.9c0,0.8,1.3,1,2.4,1.3c1.2,0.3,2.4,0.7,2.4,2.1
		c0,1.7-1.6,2.3-3.1,2.3c-1.6,0-3-0.7-3.1-2.5H127.5z"/>
</g>
</svg>
