<?xml version="1.0" encoding="utf-8"?>
<!-- Generator: Adobe Illustrator 20.1.0, SVG Export Plug-In . SVG Version: 6.00 Build 0)  -->
<svg version="1.1" id="Layer_1" xmlns="http://www.w3.org/2000/svg" xmlns:xlink="http://www.w3.org/1999/xlink" x="0px" y="0px"
	 viewBox="0 0 143 90" style="enable-background:new 0 0 143 90;" xml:space="preserve">
<style type="text/css">
	.st0{fill:#306733;}
	.st1{fill:none;}
</style>
<g>
	<path id="XMLID_221_" class="st0" d="M79.3,40.4l3.1-1.2c0-0.6,0-1.2-0.1-1.7c-0.1-0.6-0.2-1.2-0.4-1.7l-3.3-0.2
		c-0.3-0.8-0.8-1.5-1.3-2.2l1.4-3c-0.8-0.8-1.7-1.5-2.7-2l-2.4,2.2c-0.8-0.3-1.5-0.6-2.4-0.7L70,26.7c-0.6,0-1.2,0-1.6,0.1
		c-0.6,0.1-1.2,0.2-1.6,0.4l-0.2,3.4c-0.8,0.4-1.5,0.8-2.1,1.4l-3-1.4c-0.8,0.9-1.4,1.7-2,2.8l2.1,2.5c-0.3,0.8-0.5,1.6-0.6,2.5
		l-3.1,1.2c0,0.6,0,1.2,0.1,1.7c0.1,0.6,0.2,1.2,0.4,1.7l3.3,0.2c0.3,0.8,0.8,1.5,1.3,2.2l-1.4,3c0.8,0.8,1.7,1.5,2.7,2l2.4-2.2
		c0.8,0.3,1.5,0.6,2.4,0.7l1.2,3.2c0.6,0,1.2,0,1.6-0.1c0.6-0.1,1.2-0.2,1.6-0.4l0.2-3.4c0.8-0.4,1.5-0.8,2.1-1.4l3,1.4
		c0.8-0.9,1.4-1.7,2-2.8l-2.1-2.5C79,42.2,79.2,41.3,79.3,40.4 M70.9,45.3c-3.2,0.5-6.2-1.8-6.6-5c-0.5-3.3,1.7-6.3,4.9-6.8
		c3.2-0.5,6.2,1.8,6.7,5C76.3,41.8,74.1,44.9,70.9,45.3z"/>
	<path id="XMLID_220_" class="st0" d="M72.4,39.1c0.2,1.4-0.7,2.5-2,2.7c-1.3,0.2-2.5-0.7-2.7-2c-0.2-1.4,0.7-2.5,2-2.7
		C71,36.8,72.2,37.7,72.4,39.1"/>
	<path id="XMLID_217_" class="st0" d="M93.7,20.4c0-0.9-0.1-1.7-0.3-2.5l2.4-2.2c-0.4-1.1-1-2.1-1.6-3l-3.1,1.1
		c-0.6-0.6-1.3-1.2-2-1.5l0.2-3.4c-0.5-0.2-1.1-0.4-1.6-0.6C87.1,8,86.6,7.9,86,7.9l-1.4,3c-0.9,0-1.6,0.1-2.5,0.3l-2.1-2.5
		c-1.1,0.5-2,1.1-2.9,1.7l1,3.2c-0.6,0.6-1.1,1.3-1.5,2l-3.3-0.2c-0.2,0.5-0.4,1.1-0.6,1.6s-0.3,1.2-0.3,1.7l2.9,1.5
		c0,0.9,0.1,1.7,0.3,2.5l-2.4,2.2c0.4,1.1,1,2.1,1.6,3l3.1-1.1c0.6,0.6,1.3,1.2,2,1.5l-0.2,3.4c0.5,0.2,1.1,0.4,1.6,0.6
		c0.6,0.2,1.1,0.3,1.6,0.3l1.4-3c0.9,0,1.6-0.1,2.5-0.3L89,32c1.1-0.5,2-1.1,2.9-1.7l-1.1-3.2c0.6-0.6,1.1-1.3,1.5-2l3.3,0.2
		c0.2-0.5,0.4-1.1,0.6-1.6c0.2-0.6,0.3-1.2,0.3-1.7L93.7,20.4 M89.9,21.8c-0.8,3.1-3.9,4.8-6.8,4.1c-3-0.8-4.7-4-4-6.9
		c0.8-3.1,3.9-4.8,6.8-4.1C88.9,15.6,90.6,18.7,89.9,21.8z"/>
	<path id="XMLID_212_" class="st0" d="M67.9,18.4c0-0.9-0.1-1.7-0.3-2.5l2.4-2.2c-0.4-1.1-1-2.1-1.6-3l-3.1,1.1
		c-0.6-0.6-1.3-1.2-2-1.5l0.2-3.4c-0.5-0.2-1.1-0.4-1.6-0.6C61.2,6.1,60.7,6,60.2,6l-1.4,3c-0.9,0-1.6,0.1-2.5,0.3l-2.1-2.5
		c-1.1,0.5-2,1.1-2.9,1.7l1,3.2c-0.6,0.6-1.1,1.3-1.5,2l-3.3-0.2c-0.2,0.5-0.4,1.1-0.6,1.6c-0.2,0.6-0.3,1.2-0.3,1.7l2.9,1.5
		c0,0.9,0.1,1.7,0.3,2.5l-2.4,2.2c0.4,1.1,1,2.1,1.6,3l3.1-1.1c0.6,0.6,1.3,1.2,2,1.5L53.8,30c0.5,0.2,1.1,0.4,1.6,0.6
		c0.6,0.2,1.1,0.3,1.6,0.3l1.4-3c0.9,0,1.6-0.1,2.5-0.3l2.1,2.5c1.1-0.5,2-1.1,2.9-1.7L65,25.2c0.6-0.6,1.1-1.3,1.5-2l3.3,0.2
		c0.2-0.5,0.4-1.1,0.6-1.6c0.2-0.6,0.3-1.2,0.3-1.7L67.9,18.4 M64.4,20c-0.9,3.3-4.1,5.2-7.3,4.3c-3.2-0.9-5-4.2-4.2-7.5
		c0.9-3.3,4.1-5.2,7.3-4.3C63.4,13.3,65.2,16.7,64.4,20z"/>
	<path id="XMLID_210_" class="st0" d="M61,19c-0.4,1.4-1.7,2.1-3,1.8c-1.4-0.4-2.1-1.7-1.7-3.1c0.4-1.4,1.7-2.1,3-1.8
		C60.6,16.3,61.3,17.7,61,19"/>
	<path id="XMLID_209_" class="st0" d="M87,20.5c-0.4,1.4-1.7,2.2-3.1,1.8c-1.4-0.4-2.1-1.7-1.7-3.2c0.4-1.4,1.7-2.2,3.1-1.8
		C86.5,17.7,87.3,19,87,20.5"/>
</g>
<g>
	<path class="st0" d="M60.3,66H65c1.9,0,3,1,3,2.6c0,1.2-0.5,2.2-1.7,2.5v0c1.2,0.2,1.4,1.1,1.5,2.1c0.1,1,0,2.1,0.6,2.8h-1.5
		c-0.4-0.4-0.2-1.5-0.4-2.5c-0.2-1-0.4-1.8-1.7-1.8h-3.3V76h-1.3V66z M64.4,70.6c1.2,0,2.3-0.3,2.3-1.8c0-1-0.5-1.7-1.8-1.7h-3.3
		v3.5H64.4z"/>
	<path class="st0" d="M75.4,76h-1.1v-1.1h0c-0.5,0.9-1.3,1.3-2.4,1.3c-1.9,0-2.5-1.1-2.5-2.6v-4.8h1.2v4.9c0,0.9,0.6,1.5,1.5,1.5
		c1.4,0,2.1-1,2.1-2.3v-4.1h1.2V76z"/>
	<path class="st0" d="M76.9,68.8H78v1.1h0c0.5-0.9,1.3-1.3,2.4-1.3c1.9,0,2.5,1.1,2.5,2.6V76h-1.2v-4.9c0-0.9-0.6-1.5-1.5-1.5
		c-1.4,0-2.1,1-2.1,2.3V76h-1.2V68.8z"/>
</g>
</svg>
