<?xml version="1.0" encoding="utf-8"?>
<!-- Generator: Adobe Illustrator 20.1.0, SVG Export Plug-In . SVG Version: 6.00 Build 0)  -->
<svg version="1.1" id="Layer_1" xmlns="http://www.w3.org/2000/svg" xmlns:xlink="http://www.w3.org/1999/xlink" x="0px" y="0px"
	 viewBox="0 0 143 90" style="enable-background:new 0 0 143 90;" xml:space="preserve">
<style type="text/css">
	.st0{fill:#306733;}
	.st1{fill:none;}
</style>
<polygon id="XMLID_366_" class="st0" points="89.2,6 77.9,6 77.9,11.6 84.9,11.6 71.4,25 57.9,11.6 65.1,11.6 65.1,6 53.9,6 48.3,6 
	48.3,11.6 48.3,22.8 53.9,22.8 53.9,15.3 67.4,28.9 53.9,42.6 53.9,35.2 48.3,35.2 48.3,46.4 48.3,52 53.9,52 65.1,52 65.1,46.4 
	57.8,46.4 71.4,32.9 85,46.4 77.9,46.4 77.9,52 89.2,52 94.7,52 94.7,46.4 94.7,35.2 89.2,35.2 89.2,42.8 75.3,28.9 89.2,15 
	89.2,22.8 94.7,22.8 94.7,11.6 94.7,6 "/>
<g>
	<path class="st0" d="M17.2,68.9c-0.2-1.4-1.1-2-2.5-2c-1.1,0-2.2,0.4-2.2,1.7c0,2.5,6.4,0.7,6.4,4.7c0,2.1-2.1,3-3.9,3
		c-2.2,0-4.1-1.1-4.1-3.5h1.3c0,1.7,1.4,2.4,2.9,2.4c1.2,0,2.5-0.4,2.5-1.8c0-2.7-6.4-0.9-6.4-4.6c0-2,1.8-2.9,3.6-2.9
		c2,0,3.6,1,3.7,3.2H17.2z"/>
	<path class="st0" d="M21.8,68.8h1.4v1.1h-1.4v4.5c0,0.6,0.2,0.6,0.9,0.6h0.5V76h-0.9c-1.2,0-1.7-0.3-1.7-1.6v-4.6h-1.2v-1.1h1.2
		v-2.2h1.2V68.8z"/>
	<path class="st0" d="M24.4,68.8h1.1v1.5h0c0.6-1.2,1.4-1.7,2.7-1.7v1.3c-1.9,0-2.6,1.1-2.6,2.9V76h-1.2V68.8z"/>
	<path class="st0" d="M35.3,76c-0.2,0.1-0.5,0.2-0.9,0.2c-0.6,0-1-0.3-1-1.1c-0.7,0.8-1.5,1.1-2.5,1.1c-1.3,0-2.4-0.6-2.4-2
		c0-1.6,1.2-2,2.5-2.2c1.3-0.3,2.4-0.2,2.4-1.1c0-1.1-0.9-1.2-1.6-1.2c-1,0-1.8,0.3-1.8,1.4h-1.2c0.1-1.8,1.4-2.4,3.1-2.4
		c1.3,0,2.7,0.3,2.7,2v3.7c0,0.6,0,0.8,0.4,0.8c0.1,0,0.2,0,0.4-0.1V76z M33.3,72.3c-0.9,0.7-3.6,0-3.6,1.8c0,0.8,0.7,1.1,1.4,1.1
		c1.6,0,2.2-1,2.2-1.6V72.3z"/>
	<path class="st0" d="M37.9,68.8h1.4v1.1h-1.4v4.5c0,0.6,0.2,0.6,0.9,0.6h0.5V76h-0.9c-1.2,0-1.7-0.3-1.7-1.6v-4.6h-1.2v-1.1h1.2
		v-2.2h1.2V68.8z"/>
	<path class="st0" d="M46.3,73.7c-0.3,1.6-1.5,2.5-3.1,2.5c-2.3,0-3.4-1.6-3.5-3.8c0-2.2,1.4-3.8,3.4-3.8c2.6,0,3.3,2.4,3.3,4.1H41
		c0,1.3,0.7,2.4,2.3,2.4c1,0,1.7-0.5,1.9-1.4H46.3z M45.1,71.7c-0.1-1.1-0.9-2-2.1-2c-1.2,0-2,0.9-2.1,2H45.1z"/>
	<path class="st0" d="M53.9,75.4c0,2.4-1.1,3.6-3.4,3.6c-1.4,0-2.9-0.6-3-2.1h1.2c0,0.9,1.1,1.2,1.9,1.2c1.6,0,2.2-1.1,2.2-2.7v-0.5
		h0c-0.4,0.9-1.3,1.3-2.3,1.3c-2.2,0-3.2-1.7-3.2-3.7c0-1.7,0.8-3.8,3.3-3.8c0.9,0,1.7,0.4,2.2,1.2h0v-1h1.1V75.4z M52.8,72.2
		c0-1.3-0.6-2.6-2.1-2.6c-1.5,0-2.1,1.2-2.1,2.6c0,1.3,0.5,2.8,2,2.8S52.8,73.6,52.8,72.2z"/>
	<path class="st0" d="M56.7,67.5h-1.2V66h1.2V67.5z M55.5,68.8h1.2V76h-1.2V68.8z"/>
	<path class="st0" d="M57.7,75.1l4.4-5.3H58v-1.1h5.6v0.8L59.2,75h4.6V76h-6.1V75.1z"/>
	<path class="st0" d="M70.7,73.7c-0.3,1.6-1.5,2.5-3.1,2.5c-2.3,0-3.4-1.6-3.5-3.8c0-2.2,1.4-3.8,3.4-3.8c2.6,0,3.3,2.4,3.3,4.1
		h-5.4c0,1.3,0.7,2.4,2.3,2.4c1,0,1.7-0.5,1.9-1.4H70.7z M69.6,71.7c-0.1-1.1-0.9-2-2.1-2c-1.2,0-2,0.9-2.1,2H69.6z"/>
	<path class="st0" d="M78.5,65.8h1l-4.1,10.5h-1L78.5,65.8z"/>
	<path class="st0" d="M83.6,66h1.8l3.2,8.4l3.2-8.4h1.8v10h-1.3v-8.3h0L89.1,76H88l-3.1-8.3h0V76h-1.3V66z"/>
	<path class="st0" d="M98.4,68.6c2.3,0,3.5,1.7,3.5,3.8c0,2.1-1.2,3.8-3.5,3.8s-3.5-1.7-3.5-3.8C94.9,70.3,96.1,68.6,98.4,68.6z
		 M98.4,75.1c1.2,0,2.3-1,2.3-2.7s-1-2.7-2.3-2.7s-2.3,1-2.3,2.7S97.2,75.1,98.4,75.1z"/>
	<path class="st0" d="M103.1,66h1.2v3.7h0c0.4-0.8,1.3-1.1,2.3-1.1c2.2,0,3.3,1.8,3.3,3.8c0,2.1-1.1,3.8-3.3,3.8
		c-0.7,0-1.8-0.3-2.3-1.1h0v1h-1.2V66z M106.5,69.6c-1.6,0-2.2,1.4-2.2,2.7c0,1.4,0.6,2.7,2.3,2.7c1.6,0,2.2-1.4,2.2-2.8
		C108.7,71,108,69.6,106.5,69.6z"/>
	<path class="st0" d="M112.4,67.5h-1.2V66h1.2V67.5z M111.2,68.8h1.2V76h-1.2V68.8z"/>
	<path class="st0" d="M114,66h1.2v10H114V66z"/>
	<path class="st0" d="M117.9,67.5h-1.2V66h1.2V67.5z M116.7,68.8h1.2V76h-1.2V68.8z"/>
	<path class="st0" d="M118.9,75.1l4.4-5.3h-4.1v-1.1h5.6v0.8l-4.4,5.4h4.6V76h-6.1V75.1z"/>
	<path class="st0" d="M132,73.7c-0.3,1.6-1.5,2.5-3.1,2.5c-2.3,0-3.4-1.6-3.5-3.8c0-2.2,1.4-3.8,3.4-3.8c2.6,0,3.3,2.4,3.3,4.1h-5.4
		c0,1.3,0.7,2.4,2.3,2.4c1,0,1.7-0.5,1.9-1.4H132z M130.8,71.7c-0.1-1.1-0.9-2-2.1-2c-1.2,0-2,0.9-2.1,2H130.8z"/>
</g>
</svg>
